<?xml version="1.0" encoding="utf-8" ?><svg xmlns="http://www.w3.org/2000/svg" xmlns:xlink="http://www.w3.org/1999/xlink" width="2048" height="2048" viewBox="0 0 2048 2048"><path fill="white" d="M0 0L2048 0L2048 2048L0 2048L0 0Z"/><path fill="#283027" d="M748.983 692.769C782.278 652.206 815.61 627.669 863.755 606.164C874.56 600.921 889.521 598.25 900.28 593.821C919.337 585.976 931.602 579.776 953.061 580.607C957.358 580.774 968.558 576.016 973.898 575.683C1003.02 573.862 1033.06 575.005 1061.95 579.297C1079.71 581.833 1095.35 580.352 1113.64 584.138C1129.56 587.436 1138.92 591.867 1153.78 597.677C1159.63 599.967 1167.93 599.574 1173.58 601.122C1178.11 602.608 1183.31 607.702 1187.58 609.174C1225.13 622.124 1255.22 642.721 1286.9 666.267L1285.49 668.391C1274.97 659.293 1254.21 646.064 1242.26 639.682L1240.2 640.176L1239.67 639.613C1244.64 646.477 1259.6 657.616 1267.3 665.875C1254.41 660.786 1229.57 636.528 1221.21 638.701C1221.38 644.251 1235.17 649.326 1240.02 652.883C1267.34 672.945 1294.3 694.754 1316.67 720.354C1320.08 724.265 1325.56 727.5 1327.72 732.18L1327.25 733.494C1321.34 731.664 1312.94 720.807 1306.77 716.311C1299.02 710.662 1297.3 709.415 1288.32 705.405C1303.92 725.735 1329.63 753.164 1347.9 771.303C1348.07 771.596 1348.25 771.888 1348.43 772.18C1365.28 787.193 1390.78 829.341 1400.31 850.118C1405.19 860.748 1405.66 877.155 1414.4 885.602C1421.9 892.844 1423.03 911.905 1425.73 923.862C1428.65 921.681 1427.57 918.811 1427.99 914.927C1425.26 888.115 1426.94 872.645 1412.94 846.106C1407.19 835.203 1403.55 820.01 1397.8 808.612C1382.69 778.693 1358.76 759.316 1335.88 736.333L1336.38 733.311C1341.74 737.282 1346.85 741.212 1352.55 744.679C1355.47 748.673 1373.21 764.114 1377.8 767.753L1379 768.689C1384.57 776.504 1400.13 788.803 1403.24 794.985C1429.21 846.541 1451.17 902.611 1463.94 959.003C1467.8 976.358 1467.34 1003.15 1465.35 1020.35C1463.42 1036.91 1457.35 1055.72 1466.22 1070.66C1460.91 1084 1456.74 1095.26 1452.74 1109.06C1451.29 1114.04 1447.61 1131.92 1446.3 1135.14C1438.57 1154.06 1430.55 1178.96 1420.52 1196.1L1417.62 1193.81C1417.8 1182.69 1419.87 1179.91 1424.48 1169.79C1426.03 1165.49 1428.06 1161.11 1429.72 1156.8C1434.23 1145.61 1449.09 1123.97 1443.51 1113.27C1440.11 1122.67 1438.35 1130.35 1433.9 1139.94C1429.03 1150.44 1423.06 1159.65 1417.75 1169.85C1414.32 1176.43 1410.1 1193.04 1405.75 1197.13C1388.18 1213.62 1379.59 1236.04 1367.22 1255.51C1359.57 1267.55 1339.93 1286.2 1329.87 1297.33C1325.08 1302.64 1316.71 1311.86 1311.81 1316.59C1311.4 1319 1311.89 1318.66 1314.27 1319C1318.55 1322.9 1318.68 1324.77 1324.39 1324.2C1323.58 1334.1 1256.52 1387.7 1243.7 1395.1C1230.67 1402.63 1209.96 1410.31 1196.68 1420.08C1201.55 1413.61 1204.58 1409.62 1208.52 1402.63C1188.57 1421.77 1182.95 1425.05 1158.07 1434.34C1131.15 1444.38 1116.42 1446.15 1087.8 1448.35L1082 1454.96C1083.69 1464.64 1123.63 1453.05 1130.67 1450.56C1134.72 1453.38 1134.89 1452.55 1140.32 1452.03C1120.24 1457.25 1096.96 1460.52 1076.5 1465.07C1068.49 1466.86 1056.54 1462.62 1048 1465.11C1046.66 1465.42 1044.15 1465.58 1042.76 1465.69C1010.29 1469.24 972.714 1466.75 939.752 1464.77C933.233 1464.38 907.854 1456.55 901.087 1454.12C889.152 1449.83 872.935 1437.83 860.058 1433.3C839.759 1424.59 826.531 1404.29 810.654 1391.58C789.948 1374.99 775.045 1371.05 765.642 1343.26C764.935 1341.52 764.248 1339.77 763.581 1338.01C751.183 1304.99 761.24 1278.52 782.438 1252.43C795.333 1273.56 793.63 1269.05 815.1 1280.82C817.637 1282.21 824.453 1290.28 827.62 1292.9C834.445 1298.56 846.469 1298.57 852.712 1301.19C867.618 1307.43 872.103 1313.24 888.926 1317.18C917.244 1323.82 946.424 1323 975.425 1325.42C991.764 1326.79 1020.12 1332.23 1035.03 1330.08C1047.03 1328.35 1073.77 1320.17 1086.3 1315.36C1098.4 1310.71 1123.04 1304.73 1132.85 1300.12C1152.79 1290.75 1180.7 1275.95 1198.91 1263.35C1202.82 1260.65 1211.53 1250.09 1214.41 1246.33C1227.28 1234.03 1237.04 1222.11 1245.33 1206.22C1256.99 1183.84 1256.19 1170.56 1275.91 1153.63C1279.73 1139.47 1283.65 1139.44 1292.49 1128.6C1293.9 1106.97 1310.2 1085.82 1313.86 1067.54C1318.53 1044.14 1324.55 1021.2 1330.55 998.92C1336.17 978.079 1335.52 923.003 1326.63 903.883C1313.77 883.939 1310.56 854.277 1299.63 835.15C1278.65 798.43 1243.52 759.525 1219.32 725.092C1228.25 731.529 1228.89 734.588 1239.62 740.282C1240.33 739.424 1242.17 737.82 1241.45 736.465C1240.95 736.675 1240.95 736.71 1240.47 737.15C1239.16 736.104 1232.89 730.594 1233.12 729.113C1236.49 725.682 1240.71 737.89 1246.52 735.88C1229.04 709.958 1207.65 697.208 1180.71 683.294C1172.26 678.929 1163.46 672.978 1154.56 669.808C1151.53 670.656 1149.28 669.302 1150.11 668.637C1152.45 666.758 1152.96 668.543 1156.23 665.429C1153.15 663.921 1151.46 662.62 1148.14 663.193C1142.68 664.59 1139.05 664.523 1133.33 663.686C1116.61 660.083 1099.99 656.981 1083.16 654.046C1074.55 652.545 1062.99 646.167 1054.69 647.644C1026.95 635.769 995.407 629.763 965.619 626.974C957.146 626.181 948.053 623.288 939.335 624.102C914.534 626.819 913.521 632.043 887.654 625.438C871.067 634.628 862.914 634.692 846.13 640.994C831.736 646.399 814.407 657.312 800.809 664.813C793.507 669.5 784.961 678.24 777.8 683.371C764.299 684.452 761.198 686.655 748.983 692.769Z"/><path fill="#E3C7B1" d="M748.983 692.769C782.278 652.206 815.61 627.669 863.755 606.164C874.56 600.921 889.521 598.25 900.28 593.821C919.337 585.976 931.602 579.776 953.061 580.607C957.358 580.774 968.558 576.016 973.898 575.683C1003.02 573.862 1033.06 575.005 1061.95 579.297C1079.71 581.833 1095.35 580.352 1113.64 584.138C1129.56 587.436 1138.92 591.867 1153.78 597.677C1159.63 599.967 1167.93 599.574 1173.58 601.122C1178.11 602.608 1183.31 607.702 1187.58 609.174C1225.13 622.124 1255.22 642.721 1286.9 666.267L1285.49 668.391C1274.97 659.293 1254.21 646.064 1242.26 639.682L1240.2 640.176L1239.67 639.613C1244.64 646.477 1259.6 657.616 1267.3 665.875C1254.41 660.786 1229.57 636.528 1221.21 638.701C1221.38 644.251 1235.17 649.326 1240.02 652.883C1267.34 672.945 1294.3 694.754 1316.67 720.354C1320.08 724.265 1325.56 727.5 1327.72 732.18L1327.25 733.494C1321.34 731.664 1312.94 720.807 1306.77 716.311C1299.02 710.662 1297.3 709.415 1288.32 705.405C1303.92 725.735 1329.63 753.164 1347.9 771.303C1348.07 771.596 1348.25 771.888 1348.43 772.18C1348.59 772.491 1348.74 772.803 1348.9 773.112C1351.78 778.691 1355.81 783.312 1359.27 788.515C1366.21 798.952 1372.94 810.104 1378.52 821.331C1391.57 847.565 1417.98 941.371 1410.86 968.427C1410.43 970.043 1410.29 970.173 1409.61 971.442L1408.3 971.71C1407.34 964.99 1408.28 959.783 1407.49 953.303C1405.95 940.575 1403.39 930.139 1402.77 917.164C1400.02 913.543 1398.71 911.676 1395.45 908.591C1394.54 902.315 1393.64 893.227 1392.38 887.413C1391.99 895.919 1391.83 904.654 1390.36 913.021C1386.97 905.533 1385.84 897.496 1383.19 889.6C1383.6 901.254 1384.68 909.753 1386.93 921.25C1387.25 928.273 1387.57 935.386 1388.6 942.345C1389.77 950.286 1392.07 958.324 1392.52 966.334C1393.12 977.051 1385.26 1031.56 1379.11 1038.35C1377.83 1039.75 1376.31 1040.93 1374.73 1041.95C1373.48 1046.07 1373.95 1049.57 1374.38 1053.85C1374.22 1063.62 1374.11 1071.29 1367.9 1079.45C1365.12 1083.09 1362.66 1100.77 1361.28 1106.43C1356.94 1109.43 1355.9 1110.17 1351.1 1112.45C1350.37 1113.41 1350.33 1113.3 1349.1 1113.86C1344.45 1118.31 1337.28 1129.24 1333.16 1135.02C1314.46 1161.29 1297.81 1185.41 1286.65 1215.85C1292.04 1210.77 1324.6 1167.53 1326.9 1162.22L1329.24 1164.2C1324.67 1170.4 1324.95 1173.92 1321.84 1179.23C1315.07 1190.77 1304.21 1197.59 1297.84 1210.87C1291.86 1223.35 1278.92 1231.73 1268.29 1239.68C1271.8 1234.91 1277.19 1228.39 1277.62 1222.52L1276.43 1220.6L1274.47 1220.47C1269.93 1228.62 1265.84 1236.06 1257.29 1239.92C1245.95 1245.03 1246.99 1251.43 1240.56 1259.83C1237.55 1263.75 1225.1 1268 1221.72 1272.83C1210.08 1284.67 1195.69 1294.4 1181 1302.17L1181.18 1305.52C1176.71 1306.59 1173.87 1309.06 1169.85 1311.52L1170.95 1313.98C1157.33 1324.48 1145.32 1329.73 1128.14 1333.13C1125.38 1332.47 1124.44 1332.54 1121.92 1331.36C1119.24 1332.61 1117.61 1333.59 1116.45 1336.19C1113.07 1336.74 1115.42 1334.33 1113.99 1334.26C1111.62 1334.14 1110.56 1334.68 1107.57 1334.28C1098.41 1336.76 1092.68 1339.89 1083.06 1341.26L1081.76 1339.85C1093.56 1330.34 1110.66 1329.55 1121.74 1323.09C1143.13 1310.63 1214.36 1272.95 1214.41 1246.33C1227.28 1234.03 1237.04 1222.11 1245.33 1206.22C1256.99 1183.84 1256.19 1170.56 1275.91 1153.63C1279.73 1139.47 1283.65 1139.44 1292.49 1128.6C1293.9 1106.97 1310.2 1085.82 1313.86 1067.54C1318.53 1044.14 1324.55 1021.2 1330.55 998.92C1336.17 978.079 1335.52 923.003 1326.63 903.883C1313.77 883.939 1310.56 854.277 1299.63 835.15C1278.65 798.43 1243.52 759.525 1219.32 725.092C1228.25 731.529 1228.89 734.588 1239.62 740.282C1240.33 739.424 1242.17 737.82 1241.45 736.465C1240.95 736.675 1240.95 736.71 1240.47 737.15C1239.16 736.104 1232.89 730.594 1233.12 729.113C1236.49 725.682 1240.71 737.89 1246.52 735.88C1229.04 709.958 1207.65 697.208 1180.71 683.294C1172.26 678.929 1163.46 672.978 1154.56 669.808C1151.53 670.656 1149.28 669.302 1150.11 668.637C1152.45 666.758 1152.96 668.543 1156.23 665.429C1153.15 663.921 1151.46 662.62 1148.14 663.193C1142.68 664.59 1139.05 664.523 1133.33 663.686C1116.61 660.083 1099.99 656.981 1083.16 654.046C1074.55 652.545 1062.99 646.167 1054.69 647.644C1026.95 635.769 995.407 629.763 965.619 626.974C957.146 626.181 948.053 623.288 939.335 624.102C914.534 626.819 913.521 632.043 887.654 625.438C871.067 634.628 862.914 634.692 846.13 640.994C831.736 646.399 814.407 657.312 800.809 664.813C793.507 669.5 784.961 678.24 777.8 683.371C764.299 684.452 761.198 686.655 748.983 692.769Z"/><path fill="#E3C7B1" d="M1371.25 1053.84L1374.38 1053.85C1374.22 1063.62 1374.11 1071.29 1367.9 1079.45C1365.12 1083.09 1362.66 1100.77 1361.28 1106.43C1356.94 1109.43 1355.9 1110.17 1351.1 1112.45C1350.37 1113.41 1350.33 1113.3 1349.1 1113.86C1348.56 1107.24 1347.82 1107.24 1348.5 1099.82L1350.79 1098.54C1354.74 1088.74 1357.89 1087.34 1364.77 1079.51C1366.35 1064.99 1366.64 1068.75 1370.26 1054.96L1371.25 1053.84Z"/><path fill="#4B443E" d="M1348.5 1099.82L1350.79 1098.54C1350.35 1100.88 1349.54 1104.9 1350.44 1107.29C1351.43 1109.92 1357.46 1097.99 1358.35 1101.34C1360.11 1107.95 1353.48 1106.09 1351.1 1112.45C1350.37 1113.41 1350.33 1113.3 1349.1 1113.86C1348.56 1107.24 1347.82 1107.24 1348.5 1099.82Z"/><path fill="white" d="M1087.22 642.427C1105.18 636.787 1112.89 648.766 1128.98 653.255C1134.84 654.889 1137.12 655.609 1141.1 659.731C1139.74 661.407 1139.91 661.656 1137.79 661.325C1123.69 654.466 1109.91 652.798 1095.02 648.854C1090.58 647.671 1086.2 646.279 1081.9 644.682C1084.42 643.336 1084.59 643.253 1087.22 642.427Z"/><path fill="#283027" d="M1369.31 1053.37L1370.26 1054.96C1366.64 1068.75 1366.35 1064.99 1364.77 1079.51C1357.89 1087.34 1354.74 1088.74 1350.79 1098.54L1348.5 1099.82C1351.06 1087.19 1357.1 1077.4 1361.66 1065.4C1364.21 1058.68 1362.33 1054.25 1369.31 1053.37Z"/><path fill="#F5F1E8" d="M1239.62 740.282C1240.33 739.424 1242.17 737.82 1241.45 736.465C1240.95 736.675 1240.95 736.71 1240.47 737.15C1239.16 736.104 1232.89 730.594 1233.12 729.113C1236.49 725.682 1240.71 737.89 1246.52 735.88C1257.95 746.401 1258.09 743.087 1266.86 757.637C1258.07 752.625 1248.24 745.889 1239.62 740.282Z"/><path fill="#312923" d="M1369.31 1053.37C1370.74 1047.42 1369.53 1049.8 1368.15 1046.98C1367.36 1045.36 1373.89 1015.82 1377.36 1015.6C1378.05 1016.2 1374.16 1031.64 1373.97 1034.5C1374.27 1037.07 1374.54 1039.37 1374.73 1041.95C1373.48 1046.07 1373.95 1049.57 1374.38 1053.85L1371.25 1053.84L1370.26 1054.96L1369.31 1053.37Z"/><path fill="#E0CFBF" d="M1371.25 1053.84C1372.52 1044.7 1371.11 1044.86 1373.97 1034.5C1374.27 1037.07 1374.54 1039.37 1374.73 1041.95C1373.48 1046.07 1373.95 1049.57 1374.38 1053.85L1371.25 1053.84Z"/><path fill="#312923" d="M1107.57 1334.28C1114.81 1330.79 1130.72 1322.4 1137.09 1320.43C1132.17 1324.17 1126.28 1327.93 1121.92 1331.36C1119.24 1332.61 1117.61 1333.59 1116.45 1336.19C1113.07 1336.74 1115.42 1334.33 1113.99 1334.26C1111.62 1334.14 1110.56 1334.68 1107.57 1334.28Z"/><path fill="#F5F1E8" d="M1156.23 665.429C1159.64 666.513 1173.96 670.021 1173.23 674.059C1169.17 676.725 1164.5 666.386 1154.56 669.808C1151.53 670.656 1149.28 669.302 1150.11 668.637C1152.45 666.758 1152.96 668.543 1156.23 665.429Z"/><path fill="#312923" d="M1181 1302.17L1181.18 1305.52C1176.71 1306.59 1173.87 1309.06 1169.85 1311.52C1166.47 1312.43 1162.78 1314.04 1159.41 1315.27C1168.49 1309.16 1171.3 1307.35 1181 1302.17Z"/><path fill="#F5F1E8" d="M1068.19 637.537C1076.77 640.143 1078.47 641.279 1087.22 642.427C1084.59 643.253 1084.42 643.336 1081.9 644.682C1075.52 642.593 1073.5 641.337 1068.19 637.537Z"/><path fill="#E0CFBF" d="M1141.1 659.731C1141.78 664.645 1142.95 663.232 1148.14 663.193C1142.68 664.59 1139.05 664.523 1133.33 663.686C1134.81 662.887 1136.3 662.099 1137.79 661.325C1139.91 661.656 1139.74 661.407 1141.1 659.731Z"/><path fill="white" d="M1177.68 619.324C1186.8 620.632 1191.68 628.351 1201.43 630.009C1203.17 630.306 1203.56 634.563 1203.75 635.584C1192.46 637.19 1182.25 632.434 1178.37 621.222L1177.68 619.324Z"/><path fill="#312923" d="M1377.98 994.803C1377.78 988.814 1375.25 973.445 1379.19 970.506C1386.34 965.165 1380.95 998.031 1380.69 1000.02C1380.58 1001.14 1380.32 1005.21 1379.13 1006.02C1377.43 1005.86 1377.96 996.079 1377.98 994.803Z"/><path fill="#6D655D" d="M1377.98 994.803L1378.4 996.389C1378.93 998.36 1378.48 1001.07 1380.69 1000.02C1380.58 1001.14 1380.32 1005.21 1379.13 1006.02C1377.43 1005.86 1377.96 996.079 1377.98 994.803Z"/><path fill="#4B443E" d="M1372.74 922.667C1378.38 927.348 1379.9 943.301 1379.68 950.189C1377.59 947.241 1373.26 926.711 1372.74 922.667Z"/><path fill="#312923" d="M1281.69 1209.6C1285.85 1212.85 1282.24 1215.37 1279.36 1218.58C1275.12 1216.16 1279.26 1213.16 1281.69 1209.6Z"/><path fill="#312923" d="M1241.53 1246.8C1244.71 1250.9 1243.05 1252.02 1239.29 1253.98C1237.45 1252.63 1237.99 1251.75 1239.34 1249.86L1241.53 1246.8Z"/><path fill="#4B443E" d="M1168 1300.62C1171.74 1302.42 1167.37 1304.95 1165.31 1306.65C1160.9 1304.51 1165.05 1302.97 1168 1300.62Z"/><path fill="white" d="M1233.45 1383.22C1232.93 1386.89 1233.67 1385.39 1231.39 1388.02C1213.51 1392.7 1201.84 1403.96 1186.04 1411.86C1159.17 1425.3 1129.19 1435.1 1099.15 1436.76C1092.31 1437.14 1083.77 1440.8 1076.43 1440.89L1075.9 1439.93C1086.09 1432.86 1112.54 1429.99 1125.52 1427.16C1133.42 1425.44 1175.25 1413.83 1179.48 1409.11C1186.1 1401.73 1220.83 1385.79 1231.69 1380.23L1233.45 1383.22Z"/><path fill="white" d="M1082 1454.96C1083.69 1464.64 1123.63 1453.05 1130.67 1450.56C1134.72 1453.38 1134.89 1452.55 1140.32 1452.03C1120.24 1457.25 1096.96 1460.52 1076.5 1465.07C1068.49 1466.86 1056.54 1462.62 1048 1465.11C1046.66 1465.42 1044.15 1465.58 1042.76 1465.69C1040.05 1464.24 1039.68 1464.26 1036.71 1463.53C1024.45 1464.62 1020.25 1463.8 1008.47 1461.3C1026.17 1457.15 1036.73 1457.37 1055 1456.68C1063.05 1456.38 1070.12 1456.96 1078.03 1454.93C1079.91 1454.35 1079.98 1454.57 1082 1454.96Z"/><path fill="#4B443E" d="M1082 1454.96C1083.69 1464.64 1123.63 1453.05 1130.67 1450.56C1134.72 1453.38 1134.89 1452.55 1140.32 1452.03C1120.24 1457.25 1096.96 1460.52 1076.5 1465.07C1068.49 1466.86 1056.54 1462.62 1048 1465.11C1046.66 1465.42 1044.15 1465.58 1042.76 1465.69C1040.05 1464.24 1039.68 1464.26 1036.71 1463.53C1049.36 1461.99 1071.04 1465.22 1078.03 1454.93C1079.91 1454.35 1079.98 1454.57 1082 1454.96Z"/><path fill="#E3C7B1" d="M1073 1341.36C1074.53 1341.87 1076.06 1342.4 1077.58 1342.96C1064.42 1347.23 1049.81 1357.67 1034.81 1353.41C1022.2 1349.82 1061.63 1343.25 1062.51 1343.09C1065.99 1342.46 1069.49 1341.88 1073 1341.36Z"/><path fill="#F5F1E8" d="M1279.49 1345.5L1281.26 1346.36L1280.69 1346.9C1267.13 1359.85 1254.02 1369.84 1237.77 1379.47C1235.7 1380.7 1234.95 1381.44 1233.45 1383.22L1231.69 1380.23C1238.63 1375.9 1247.38 1371.36 1253.71 1366.16C1265.58 1356.41 1264.79 1351.39 1279.49 1345.5Z"/><path fill="#F5F1E8" d="M1284.4 1341.42C1290.39 1335.41 1293.93 1327.18 1302.95 1326.86C1303.71 1326.83 1309.74 1318.41 1311.81 1316.59C1311.4 1319 1311.89 1318.66 1314.27 1319C1308.65 1322.98 1308.09 1326.11 1302.95 1330.93C1297.15 1336.36 1291.76 1338.88 1285.41 1343.2L1284.4 1341.42Z"/><path fill="#E0CFBF" d="M1326.9 1162.22C1331.1 1144.62 1354.07 1135.01 1329.24 1164.2L1326.9 1162.22Z"/><path fill="#F5F1E8" d="M1429.72 1156.8L1431.69 1158.35C1434.06 1161.01 1429.9 1172.65 1427.16 1175.73C1425.55 1173.56 1427 1173.11 1424.48 1169.79C1426.03 1165.49 1428.06 1161.11 1429.72 1156.8Z"/><path fill="#4B443E" d="M1429.72 1156.8L1431.69 1158.35C1428.37 1163.42 1427.33 1169.78 1427.16 1175.73C1425.55 1173.56 1427 1173.11 1424.48 1169.79C1426.03 1165.49 1428.06 1161.11 1429.72 1156.8Z"/><path fill="#E0CFBF" d="M1116.45 1336.19C1117.61 1333.59 1119.24 1332.61 1121.92 1331.36C1124.44 1332.54 1125.38 1332.47 1128.14 1333.13C1124.36 1334.61 1120.39 1335.27 1116.45 1336.19Z"/><path fill="#B7A191" d="M1181.18 1305.52C1180.96 1307.8 1173.21 1312.35 1170.95 1313.98L1169.85 1311.52C1173.87 1309.06 1176.71 1306.59 1181.18 1305.52Z"/><path fill="#F5F1E8" d="M1427.99 914.927C1428.67 917.501 1431.14 926.114 1427.95 927.838L1426.92 926.887L1427.15 927.343C1426.21 925.741 1426.15 925.567 1425.73 923.862C1428.65 921.681 1427.57 918.811 1427.99 914.927Z"/><path fill="#B7A191" d="M1073 1341.36C1076.6 1340.66 1078.1 1341.05 1081.76 1339.85L1083.06 1341.26C1081.21 1341.76 1079.41 1342.39 1077.58 1342.96C1076.06 1342.4 1074.53 1341.87 1073 1341.36Z"/><path fill="#6D655D" d="M1284.4 1341.42L1285.41 1343.2C1283.73 1344.62 1283.08 1345.11 1281.26 1346.36L1279.49 1345.5C1281.28 1344.12 1282.57 1342.78 1284.4 1341.42Z"/><path fill="#E3C7B1" d="M1265.19 1242.85C1273.28 1244.98 1247.39 1264.58 1244.48 1266.46C1243.66 1266.58 1243.69 1266.71 1243.05 1266.38C1242.99 1265.59 1243.46 1265.24 1243.82 1264.45C1248.74 1253.69 1254.11 1248.68 1264.39 1243.28L1265.19 1242.85Z"/><path fill="white" d="M1025.12 1441.2C1028.09 1440.98 1051.83 1438.35 1047.99 1444.21C1039.45 1447.42 1028.63 1451.78 1025.12 1441.2Z"/><path fill="#B7A191" d="M1230.49 1279.11C1230.95 1279.19 1231.18 1279.17 1231.52 1279.43L1231.52 1279.59C1230.14 1282.03 1222.96 1284.74 1220.35 1285.73C1215.67 1282.78 1227 1280.63 1230.49 1279.11Z"/><path fill="#F5F1E8" d="M1445.97 1093.57C1450.11 1094.26 1452.69 1093.52 1450.62 1098.06L1450.08 1099.47C1445.34 1097.39 1443.14 1097.99 1445.97 1093.57Z"/><path fill="#A9C0AE" d="M887.654 625.438C913.521 632.043 914.534 626.819 939.335 624.102C948.053 623.288 957.146 626.181 965.619 626.974C995.407 629.763 1026.95 635.769 1054.69 647.644C1080.55 662.535 1116.71 671.37 1143.01 686.785C1158.56 695.898 1175.01 705.815 1188.84 717.378C1198.85 725.579 1211.42 739.061 1221.48 746.349C1221.49 747.831 1221.49 749.313 1221.48 750.796C1210.49 740.944 1200.29 730.907 1188.57 721.87C1140.3 684.68 1082.54 666.97 1025.22 649.022C1010.41 651.588 991.822 647.506 974.643 649.013L976.893 652.038C1033.86 659.687 1087.76 676.541 1138.3 704.064C1150.18 710.528 1160.43 713.78 1169.93 724.341C1179.23 734.676 1191.7 756.269 1204.98 759.871C1205.75 760.746 1206.34 761.521 1207.05 762.441C1214.54 779.618 1227.23 789.73 1240.87 802.163C1241.95 804.013 1242.72 805.287 1243.64 807.198C1245.25 812.38 1245.96 815.338 1248.79 820.081C1248.07 821.865 1247.26 822.863 1247.92 824.658C1248.57 827.012 1249.35 830.368 1250.28 832.52L1249.22 838.439C1235.18 797.828 1177.34 758.153 1143.72 732.513C1118.99 713.65 1105.6 704.944 1074.41 698.277C1089.42 709.157 1114.09 718.42 1130.77 727.919C1160.27 744.725 1181.98 766.569 1205.15 790.584L1202.84 790.747L1202.04 790.421C1193.8 797.197 1186.85 782.254 1179.97 778.001C1176.06 775.593 1177.91 773.282 1179.43 768.642C1152.47 745.085 1145.44 743.906 1116.95 728.386C1116.52 726.614 1115.84 725.631 1114.01 724.862C1107.35 722.077 1114.19 729.578 1114.7 732.67C1110.02 730.79 1104.32 729.245 1099.28 727.346C1089.94 724.604 1078.55 717.507 1069.06 715.912C1047.85 712.344 1027.23 705.859 1006.34 701.61C1000.94 700.513 988.701 701.443 982.996 701.476C968.326 701.56 956.38 700.392 942.3 696.396C926.261 712.484 908.034 706.345 889.755 712.452C871.711 718.481 851.782 725.169 833.691 731.439C828.2 733.342 817.733 743.384 811.81 746.859C803.686 751.626 793.753 754.481 790.132 763.692L791.034 763.757C814.026 742.781 827.645 751.137 844.174 730.265C860.041 726.575 884.932 715.381 896.979 716.137L920.974 714.911C915.916 716.443 912.363 717.701 907.124 718.494C896.817 720.799 867.416 726.472 858.743 730.695C842.227 738.738 811.532 752.996 797.642 764.312C776.855 781.247 747.043 809.22 730.206 829.783C734.452 821.406 738.571 815.473 742.702 807.868C741.62 803.652 739.904 805.485 735.56 805.698C734.22 809.548 732.848 813.786 731.397 817.557C727.747 819.872 720.746 824.307 717.907 827.212C709.182 836.143 689.347 861.923 686.796 873.069C686.204 875.766 685.695 878.48 685.269 881.207C684.081 883.505 684.151 886.049 683.094 888.063C679.446 895.015 675.982 901.257 672.796 908.498C669.527 917.399 671.025 935.775 660.803 937.46L658.64 940.201C659.459 943.416 662.122 945.138 661.586 946.565C659.069 953.261 656.398 959.87 654.056 966.653C653.332 971.805 652.471 979.29 651.411 984.222C652.088 985.626 651.894 985.469 652.468 985.802C653.368 984.91 653.437 983.424 654.45 982.754C656.42 983.409 653.436 996.532 652.851 997.665C651.837 998.245 650.785 998.279 649.654 998.5C648.84 998.664 648.028 998.834 647.216 999.009L646.942 1000.72C645.748 1007.76 641.124 1019.52 639.216 1027.6C631.622 1059.76 633.144 1106.85 645.19 1137.53L648.343 1137.94C649.313 1135.65 642.265 1089.15 642.555 1079.65C645.545 1085.58 645.906 1097.4 646.51 1104.28C649.864 1142.46 661.691 1176.76 674.158 1212.88C681.362 1232.95 691.399 1251.9 703.965 1269.13C714.214 1283.15 722.658 1291.43 730.082 1307.34L731.378 1310.06C712.487 1288.48 703.529 1282.03 686.761 1257.75C685.948 1255.99 683.626 1254.02 681.893 1253.77C671.163 1252.22 659.982 1215.44 655.537 1214.1C654.474 1214.49 653.312 1217.14 652.54 1218.22C646.108 1205.56 640.073 1195.18 630.599 1184.42C637.087 1201 648.55 1233.5 659.058 1245.94L657.697 1248.18C644.702 1235.57 631.922 1200.97 624.154 1183.41C621.166 1176.65 616.363 1154.71 610.32 1152.16C610.742 1151.76 611.486 1151.3 611.5 1150.64C610.705 1149.99 608.518 1151.26 607.541 1151.23C607.525 1151.12 607.508 1151.02 607.492 1150.92C606.852 1150.92 606.995 1150.96 606.253 1151.39C597.022 1127.12 594.414 1099.79 589.58 1074.65C585.028 1050.98 577.24 1030.48 578.588 1005.3C579.426 989.658 584.962 980.246 588.035 965.346C588.783 961.719 586.499 948.03 587.827 944.207C593.256 928.586 597.877 910.702 603.75 895.515C606.767 887.812 612.261 879.457 614.93 871.794C619.991 857.265 623.066 844.698 631.548 831.421C635.512 825.214 638.775 816.682 642.796 810.135C648.886 800.22 655.8 790.902 662.282 781.241C670.498 765.9 673.564 759.767 687.358 748.918C689.925 746.9 695.768 731.29 701.334 725.999C716.103 711.959 732.661 704.115 748.983 692.769C761.198 686.655 764.299 684.452 777.8 683.371C784.961 678.24 793.507 669.5 800.809 664.813C814.407 657.312 831.736 646.399 846.13 640.994C862.914 634.692 871.067 634.628 887.654 625.438Z"/><path fill="#E3C7B1" d="M966.114 650.594C958.605 648.713 924.716 649.15 921.289 641.37C926.91 638.846 983.791 639.968 994.12 641.5C1002.1 642.682 1016.99 646.542 1025.22 649.022C1010.41 651.588 991.822 647.506 974.643 649.013C970.318 648.963 969.513 648.496 966.114 650.594Z"/><path fill="#F5F1E8" d="M645.19 1137.53L648.343 1137.94C649.313 1135.65 642.265 1089.15 642.555 1079.65C645.545 1085.58 645.906 1097.4 646.51 1104.28C649.864 1142.46 661.691 1176.76 674.158 1212.88L670.707 1214.83L669.59 1213.98C669.452 1207.07 661.828 1185.79 659.573 1177.11L658.561 1173.11C657.412 1168.57 654.173 1144.91 648.926 1145.74C648.447 1141.85 647.541 1140.37 645.19 1137.53Z"/><path fill="white" d="M669.59 1213.98C659.052 1196.76 655.484 1172.24 646.112 1153.99C645.53 1152.85 644.462 1142.9 645.618 1141.83C646.924 1141.92 648.327 1144.79 648.926 1145.74C654.173 1144.91 657.412 1168.57 658.561 1173.11L659.573 1177.11C661.828 1185.79 669.452 1207.07 669.59 1213.98Z"/><path fill="#F5F1E8" d="M1179.43 768.642C1185.1 773.779 1197.41 784.901 1202.04 790.421C1193.8 797.197 1186.85 782.254 1179.97 778.001C1176.06 775.593 1177.91 773.282 1179.43 768.642Z"/><path fill="#F5F1E8" d="M654.056 966.653C644.407 962.052 655.245 955.998 656.394 946.451C656.587 944.847 658.372 942.438 658.64 940.201C659.459 943.416 662.122 945.138 661.586 946.565C659.069 953.261 656.398 959.87 654.056 966.653Z"/><path fill="#F5F1E8" d="M735.56 805.698C739.379 802.845 740.47 804.251 744.752 800.769C748.845 797.44 756.666 783.782 759.393 783.194C760.74 783.658 760.015 788.991 759.475 789.438C752.77 794.984 747.915 801.785 742.702 807.868C741.62 803.652 739.904 805.485 735.56 805.698Z"/><path fill="#ABB1AE" d="M647.216 999.009L647.585 997.726C648.562 994.394 649.931 986.945 651.411 984.222C652.088 985.626 651.894 985.469 652.468 985.802C653.368 984.91 653.437 983.424 654.45 982.754C656.42 983.409 653.436 996.532 652.851 997.665C651.837 998.245 650.785 998.279 649.654 998.5C648.84 998.664 648.028 998.834 647.216 999.009Z"/><path fill="#ABB1AE" d="M896.979 716.137L920.974 714.911C915.916 716.443 912.363 717.701 907.124 718.494C903.188 715.452 902.123 716.7 896.979 716.137Z"/><path fill="#F5F1E8" d="M966.114 650.594C969.513 648.496 970.318 648.963 974.643 649.013L976.893 652.038C973.275 651.626 969.741 651.042 966.114 650.594Z"/><path fill="#E3C7B1" d="M1082.31 1023.67C1092.37 1080.22 1096.16 1145.25 1061.02 1193.86C1040.44 1221.65 1015.42 1250.53 985.194 1267.82C973.416 1274.56 954.69 1279.24 941.664 1281.82C911.331 1287.83 869.953 1283.27 847.06 1260.37C921.95 1282.02 947.283 1263.6 991.623 1202.98L990.36 1200.94C982.144 1221.04 948.698 1245.37 928.395 1252.22C889.709 1265.27 832.428 1248.86 797.58 1231.08C806.157 1156.07 869.811 1132.46 935.443 1135.23C955.658 1136.08 979.828 1132.4 996.749 1120.51C979.641 1122.93 965.671 1124.53 948.407 1124.94C918.709 1125.65 887.526 1121.41 858.974 1131.22C847.894 1135.03 835.918 1143.11 825.175 1148.72C834.194 1139.24 844.588 1127.5 850.506 1115.83L852.157 1116.14L852.756 1115.52C909.393 1057.41 1014.79 1128.16 1082.31 1023.67Z"/><path fill="#E0CFBF" d="M990.36 1200.94C994.642 1194.45 995.309 1197.08 991.623 1202.98L990.36 1200.94Z"/><path fill="#A9C0AE" d="M794.263 914.171C805.347 926.298 820.532 951.43 827.926 965.743C851.723 1011.81 866.622 1064.83 850.506 1115.83C844.588 1127.5 834.194 1139.24 825.175 1148.72C817.235 1157.23 801.562 1166.88 791.1 1172.23C820.727 1135.92 815.753 1096.35 797.366 1055.37C783.421 1100.9 735.074 1104.19 729.306 1152C727.114 1170.17 734.052 1173.93 740.099 1187.65L739.359 1186.82C734.42 1181.22 719.66 1172.94 715.275 1181.97C699.697 1172.92 692.438 1140.43 691.4 1123.74C690.343 1106.34 692.751 1088.9 698.486 1072.44C704.432 1054.93 715.003 1033.95 728.118 1020.82C761.167 987.75 787.745 962.724 794.263 914.171Z"/><path fill="#E3C7B1" d="M790.727 1088.85C793.975 1092.4 794.429 1100.6 795.574 1105.27C808.397 1157.55 774.823 1173.68 775.888 1220.13L768.469 1212.74C759.321 1199.26 754.759 1183.4 753.631 1167.31C751.148 1131.9 768.689 1113.52 790.727 1088.85Z"/><path fill="#283027" d="M715.275 1181.97C719.66 1172.94 734.42 1181.22 739.359 1186.82L740.099 1187.65C749.722 1195.4 756.751 1200.5 760.439 1213.37C763.241 1224.84 766.587 1230.68 773.836 1239.59C783.421 1251.36 757.512 1240.76 754.938 1239.26C739.343 1230.17 723.972 1216.91 718.643 1199.03C716.914 1193.23 716.98 1187.92 715.275 1181.97Z"/><path fill="#F5F1E8" d="M652.54 1218.22C653.312 1217.14 654.474 1214.49 655.537 1214.1C659.982 1215.44 671.163 1252.22 681.893 1253.77C683.626 1254.02 685.948 1255.99 686.761 1257.75C687.181 1264.74 685.125 1261.22 691.498 1268.96C698.132 1277.02 702.73 1287.26 709.469 1295.13C716.125 1302.91 722.117 1306.01 727.608 1314.99C718.879 1308.04 701.641 1296.64 696.633 1287.61C691.225 1277.89 683.602 1272.7 676.709 1263.22C667.646 1250.77 655.613 1233.69 652.54 1218.22Z"/><path fill="#2F3E34" d="M1370.05 1263.19C1371.91 1262.2 1373.8 1261.3 1375.6 1260.19C1377.88 1258.79 1380.04 1256.81 1381.66 1254.68C1385.87 1249.13 1416.42 1200.28 1417.05 1197C1417.13 1196.58 1417.19 1196.16 1417.27 1195.73L1417.62 1193.81L1420.52 1196.1C1416.96 1204.12 1408.17 1216.42 1403.43 1224.09C1398.49 1230.88 1396.14 1240.37 1391.21 1246.99C1379.25 1263.07 1369.95 1276.03 1354.4 1289.05C1361.62 1277.6 1364.57 1276.13 1370.05 1263.19Z"/><path fill="#E0CFBF" d="M1248.79 820.081C1250.3 822.235 1252.96 825.274 1254.03 827.565C1255.89 831.517 1260.29 845.536 1263.52 847.145C1267.39 846.57 1265.76 849.981 1268.39 849.63C1269.87 845.362 1253.87 819.793 1254.01 818.836C1259.27 817.843 1276.27 855.997 1273.94 863.032L1273.52 863.227C1270.91 860.265 1266.42 851.585 1263.64 847.41C1268.88 863.34 1277.34 880.741 1275.62 898.142C1275.56 898.684 1275.77 899.738 1275.27 900.162C1273.47 899.434 1275.59 890.261 1272.63 886.458C1271.95 885.575 1268.26 870.878 1267.9 868.999C1265.75 857.884 1261 848.389 1256.27 838.365L1254.48 834.576C1251.48 828.282 1251.73 829.644 1247.92 824.658C1247.26 822.863 1248.07 821.865 1248.79 820.081Z"/><path fill="#A9C0AE" d="M1194.45 734.584C1205.82 739.929 1212.32 746.213 1221.59 754.657C1222.4 755.389 1222.48 755.663 1223.54 755.995L1224.01 755.873C1224.65 754.592 1222.22 751.845 1221.48 750.796C1221.49 749.313 1221.49 747.831 1221.48 746.349L1222.92 746.928C1227.29 748.555 1231.85 754.18 1234.88 757.533L1237.65 760.646C1240.57 763.913 1257.41 784.809 1257.23 787.441L1256.98 787.757C1256.68 787.778 1227.9 753.302 1223.57 749.152C1225.78 753.66 1228.52 757.623 1230.17 762.474C1230.51 763.469 1241.13 774.202 1242.72 776.158L1246.18 780.328L1243.48 778.937C1241.34 777.82 1236.54 773.685 1235.48 772.074C1230.62 764.735 1224.51 760.464 1218.47 754.11C1216.94 752.509 1212.05 750.83 1210.85 749.507C1204.71 742.763 1201.3 740.153 1194.45 734.584Z"/><path fill="#E0CFBF" d="M1352.55 744.679C1352.49 741.369 1349.73 737.898 1347.39 735.686C1345.22 733.638 1343.26 730.713 1341.37 728.398C1335.42 721.433 1329.37 714.323 1322.44 708.32C1321.81 707.779 1319.01 705.632 1319.74 704.646C1324.6 702.619 1375.45 761.932 1379 768.689L1377.8 767.753C1373.21 764.114 1355.47 748.673 1352.55 744.679Z"/><path fill="#283027" d="M1366.95 1294.06C1364.03 1307.48 1330.7 1340.94 1317.57 1347.6C1316.75 1342.77 1319.8 1344.09 1323.33 1340.49C1337.9 1325.63 1353.13 1309.63 1366.95 1294.06Z"/><path fill="#2F3E34" d="M1264.48 1392.32C1264.79 1392.41 1265.1 1392.5 1265.41 1392.58C1260.64 1399.85 1227.19 1416.63 1218.57 1422.12C1212.08 1426.25 1204.54 1431.91 1197.77 1435.41C1196.91 1434.53 1194.73 1433.05 1195.04 1431.61C1195.62 1431 1196.01 1431.26 1196.49 1431C1217.5 1419.66 1243.99 1403.76 1264.48 1392.32Z"/><path fill="#2F3E34" d="M1438.81 1173.78C1442.64 1178.88 1406.47 1240.6 1401.25 1249.16C1401.17 1245.41 1403.05 1239.91 1402.37 1237.89L1402.43 1238.54C1413.97 1225.59 1415.67 1217.23 1423.2 1202.57C1427.49 1194.21 1434.18 1182.31 1438.81 1173.78Z"/><path fill="#ABB1AE" d="M685.269 881.207C685.955 881.46 686.742 881.904 687.511 881.756C690.704 875.927 704.524 851.367 709.511 849.372C709.589 849.401 709.787 849.448 709.721 849.583C704.287 860.738 695.267 872.698 689.477 883.641C684.256 893.507 679.976 903.835 674.426 913.207C673.848 912.532 673.13 909.476 672.796 908.498C675.982 901.257 679.446 895.015 683.094 888.063C684.151 886.049 684.081 883.505 685.269 881.207Z"/><path fill="#ABB1AE" d="M672.814 1288.46C678.717 1290.86 696.671 1310.14 702.589 1315.7C709.447 1322.13 716.53 1328.32 723.823 1334.25C726.929 1336.83 727.909 1337.54 730.109 1340.88C728.543 1339.55 727.79 1339.12 726.034 1337.97C705.141 1324.32 687.417 1308.69 672.814 1288.46Z"/><path fill="#ABB1AE" d="M769.308 797.711C774.199 801.767 765.448 806.595 762.517 809.049C745.448 823.345 732.263 841.13 718.182 857.964C714.417 852.789 762.693 803.096 769.308 797.711Z"/><path fill="#ABB1AE" d="M1114.7 732.67C1114.19 729.578 1107.35 722.077 1114.01 724.862C1115.84 725.631 1116.52 726.614 1116.95 728.386C1116.63 729.028 1116.11 729.808 1116.11 730.555C1119.4 733.327 1123.59 734.906 1126.66 737.356C1137.96 746.367 1149.93 754.099 1160.46 763.924C1153.7 761.085 1120.79 738.169 1114.7 732.67Z"/><path fill="#ABB1AE" d="M683.4 907.723C684.365 912.52 665.953 954.368 663.379 964.015L662.215 968.523C661.146 972.943 659.949 977.941 658.528 982.253C658.359 979.991 658.077 978.865 658.497 976.626C661.806 958.115 667.88 940.207 676.515 923.503C679.147 918.303 680.836 912.983 683.4 907.723Z"/><path fill="#E0CFBF" d="M1245.14 782.764C1247.99 784.088 1247.89 783.74 1249.43 786.611C1256.83 800.328 1265.96 812.995 1274.22 826.149C1276.92 830.455 1277.71 832.691 1278.08 837.617C1274.1 832.885 1246.02 786.952 1245.14 782.764Z"/><path fill="#283027" d="M1130.67 1450.56C1133.5 1448.78 1143.05 1442.13 1145.38 1441.46C1170.93 1434.13 1149.61 1449.76 1140.32 1452.03C1134.89 1452.55 1134.72 1453.38 1130.67 1450.56Z"/><path fill="#283027" d="M1345.74 1296.92C1350.95 1302.63 1335.39 1312.4 1333.86 1317.41C1333.79 1317.63 1332.38 1319.72 1332.16 1320.07C1331.62 1318.74 1329.4 1314.08 1329.77 1312.93C1331.59 1307.29 1341.43 1300.67 1345.74 1296.92Z"/><path fill="#ABB1AE" d="M623.856 1197.75C630.45 1202.84 642.707 1236.44 645.709 1245.46C640.413 1241.76 626.502 1205.5 623.856 1197.75Z"/><path fill="#F5F1E8" d="M725.418 1346.42C726.836 1346.65 730.553 1346.75 731.17 1348.48C733.241 1354.26 740.862 1356.77 745.968 1360.06L747.578 1361.12C750.053 1362.69 752.704 1364.18 755.103 1365.81L758.122 1367.84C759.568 1368.79 760.744 1369.7 761.984 1370.91L763.283 1372.15C753.956 1370.04 743.106 1358.1 733.547 1356.34C731.59 1355.98 726.422 1348.25 725.418 1346.42Z"/><path fill="#F5F1E8" d="M1286.9 666.267C1293.67 670.754 1310.3 684.893 1314.55 691.897C1316.55 695.194 1307.1 687.121 1306.41 686.33C1300.34 679.398 1292.47 674.251 1285.49 668.391L1286.9 666.267Z"/><path fill="#ABB1AE" d="M606.253 1151.39C606.995 1150.96 606.852 1150.92 607.492 1150.92C607.508 1151.02 607.525 1151.12 607.541 1151.23C608.518 1151.26 610.705 1149.99 611.5 1150.64C611.486 1151.3 610.742 1151.76 610.32 1152.16C611.103 1156.33 620.623 1186.55 619.201 1188.29C619.11 1188.3 619.018 1188.3 618.927 1188.31C619.227 1188.62 606.867 1153.39 606.253 1151.39Z"/><path fill="#E0CFBF" d="M1304.94 912.693C1311.1 917.301 1311.13 941.038 1310.43 948.241C1307.34 947.602 1308.14 933.989 1307.56 930.007C1306.74 924.353 1305.56 918.244 1304.94 912.693Z"/><path fill="#A9C0AE" d="M1231.87 781.548C1236.49 786.042 1240.53 789.937 1243.21 795.998C1244.73 799.411 1247.25 803.669 1247.86 807.262C1248.33 810.04 1244.93 806.317 1244.95 806.335L1243.64 807.198C1242.72 805.287 1241.95 804.013 1240.87 802.163L1242.14 800.929L1231.87 781.548Z"/><path fill="#F5F1E8" d="M1242.14 800.929C1243.85 803.427 1243.92 803.493 1244.95 806.335L1243.64 807.198C1242.72 805.287 1241.95 804.013 1240.87 802.163L1242.14 800.929Z"/><path fill="#2F3E34" d="M1189.97 1428.11C1192.77 1431.54 1172.37 1440.48 1168.62 1441.53C1167.33 1439.55 1165.65 1437.94 1168.99 1437.24C1176.1 1435.75 1183.37 1431.4 1189.97 1428.11Z"/><path fill="#ABB1AE" d="M1205.15 790.584C1207.8 793.057 1222.73 806.999 1221.61 810.231C1220.71 810.985 1219.2 809.229 1218.67 808.617C1213.45 802.614 1208.12 796.705 1202.84 790.747L1205.15 790.584Z"/><path fill="#F5F1E8" d="M652.173 1002.57C653.64 1006.19 649.192 1028.94 647.503 1033.26C646.657 1025.53 649.308 1009.85 652.173 1002.57Z"/><path fill="#A9C0AE" d="M1206.49 757.756C1205 754.759 1203.59 751.726 1202.25 748.66L1207.8 755.092C1210.02 757.706 1220.71 762.02 1219.66 763.528C1216.87 764.515 1211.47 761.338 1209.1 760.123L1207.05 762.441C1206.34 761.521 1205.75 760.746 1204.98 759.871L1206.49 757.756Z"/><path fill="#F5F1E8" d="M1206.49 757.756C1207.71 758.795 1208.09 759.084 1209.1 760.123L1207.05 762.441C1206.34 761.521 1205.75 760.746 1204.98 759.871L1206.49 757.756Z"/><path fill="#F5F1E8" d="M765.642 1343.26C762.937 1341.95 748.074 1335.26 748.304 1332.67C751.241 1331.23 757.504 1339.61 763.581 1338.01C764.248 1339.77 764.935 1341.52 765.642 1343.26Z"/><path fill="#2F3E34" d="M1444.54 1158.58C1445.24 1156.19 1448.39 1143.4 1450.83 1142.81L1450.61 1143.14L1451.39 1143.99C1450.75 1149.84 1448.07 1153.87 1446.21 1159.16L1444.54 1158.58Z"/><path fill="#E0CFBF" d="M1280.49 928.689C1281.57 933.176 1279.88 945.175 1278.39 949.623C1276.46 942.141 1277.98 935.857 1280.49 928.689Z"/><path fill="#F5F1E8" d="M794.471 775.053C794.749 778.407 785.897 786.22 783.08 788.351C782.124 784.599 791.708 777.146 794.471 775.053Z"/><path fill="#F5F1E8" d="M651.969 1272.6C659.013 1274.71 660.591 1277.79 663.202 1285.09C659.632 1282 655.084 1276.32 651.969 1272.6Z"/><path fill="#F5F1E8" d="M671.384 1295.7C674.369 1297.57 680.453 1301.98 680.637 1305.64C677.463 1306.09 672.877 1298.3 671.384 1295.7Z"/><path fill="#F5F1E8" d="M659.058 1245.94C660.308 1247.64 665.585 1255.38 664.584 1257.19C663.484 1257.26 658.415 1249.31 657.697 1248.18L659.058 1245.94Z"/><path fill="#E0CFBF" d="M1276.67 872.595C1281.12 875.399 1281.26 879.117 1281.82 884.214C1278.53 881.866 1277.68 876.589 1276.67 872.595Z"/><path fill="#F5F1E8" d="M1250.28 832.52C1250.78 834.606 1253.78 844.43 1252.51 845.337C1251.44 844.888 1250.92 843.52 1250.51 842.51C1249.97 841.19 1249.54 839.828 1249.22 838.439L1250.28 832.52Z"/><path fill="#F5F1E8" d="M1291.21 860.849C1292.88 862.956 1295.13 867.238 1294.01 869.94C1290.64 869.514 1290.59 863.333 1291.21 860.849Z"/><path fill="#312923" d="M1305.26 1358.68C1307.64 1360.8 1306.04 1362.63 1303.95 1364.36C1299.2 1364.33 1303.09 1361.44 1305.26 1358.68Z"/><path fill="#F5F1E8" d="M702.511 1329.75C708.26 1331.45 707.703 1330.59 710.464 1335.28C706.605 1335.69 704.974 1332.57 702.511 1329.75Z"/><path fill="#283027" d="M1315.43 1349.33C1319.63 1351.46 1317.89 1352.23 1315.16 1355.65C1311.41 1355.67 1314.27 1352.27 1315.43 1349.33Z"/><path fill="#4B443E" d="M1392.36 1252.27C1395.01 1252.24 1393.97 1257.36 1393.89 1259.23C1392.02 1256.18 1390.09 1255.1 1392.36 1252.27Z"/><path fill="#F5F1E8" d="M644.353 1041.74C646.69 1043.73 646.282 1044.88 645.126 1047.61C641.733 1048.41 643.791 1044.09 644.353 1041.74Z"/><path fill="#ABB1AE" d="M1446.21 1159.16C1445.66 1160.49 1444.51 1164.36 1443.44 1165.18L1443.17 1165.06L1443.17 1163.51L1443.04 1163.82C1443.21 1161.81 1443.77 1160.5 1444.54 1158.58L1446.21 1159.16Z"/><path fill="#6D655D" d="M1335.88 736.333C1332.73 733.087 1329.63 728.734 1336.38 733.311L1335.88 736.333Z"/><path fill="#F5F1E8" d="M1251.56 815.192C1253.09 815.432 1252.41 815.391 1253.29 816.641C1252.09 816.37 1251.78 818.173 1251.56 815.192Z"/></svg>