<?xml version="1.0" encoding="utf-8" ?><svg xmlns="http://www.w3.org/2000/svg" xmlns:xlink="http://www.w3.org/1999/xlink" width="2048" height="2048" viewBox="0 0 2048 2048"><path fill="#283027" d="M844.109 614.483C860.874 605.613 875.138 601.546 892.9 595.674C903.256 592.25 913.731 587.404 924.31 584.34C932.747 581.131 943.515 581.503 951.907 579.356C989.048 569.858 1027.29 575.519 1064.94 578.5C1081.58 579.817 1099.69 580.539 1116.24 583.956C1129.54 586.701 1142.19 592.732 1154.94 597.301C1171.13 602.201 1172.01 599.207 1188.99 608.334C1190.5 611.753 1198.92 614.243 1202.66 615.886C1216.38 621.907 1230.16 629.032 1242.45 637.635L1240.22 639.428C1240.74 643.998 1255.29 657.573 1260.07 657.494L1265.79 661.546L1265.3 662.89C1262.11 663.178 1260.9 662.035 1258.1 660.391C1255.6 658.381 1247.61 653.83 1244.52 652.685C1234.18 643.308 1231.65 641.297 1218.24 638.319C1224.44 643.564 1229.27 646.909 1236.08 651.208C1261.8 667.399 1286.49 689.985 1307.66 711.695C1307.16 714.587 1307.28 714.414 1305.47 716.702C1300.68 713.446 1295.98 710.02 1290.85 707.38C1296.62 717.136 1304.78 726.414 1313.18 734C1325.24 747.604 1335.24 758.575 1348.21 771.226C1365.72 787.243 1389.1 827.39 1401.34 849.781C1405.57 857.246 1406.36 870.716 1409.17 880.898L1417.89 888.567C1421.6 900.081 1422.25 914.859 1426.49 924.579L1427.67 925.012C1430.52 914.845 1423.49 874.078 1419.67 863.164C1417.89 858.07 1414.28 850.789 1411.67 845.763C1408.06 838.365 1403.98 825.744 1400.5 817.432C1391.39 795.707 1377.82 778.44 1362.13 761.164C1353.25 751.379 1342.35 744.137 1333.47 733.526L1332.41 732.241C1340.37 732.014 1347.18 741.927 1354.7 746.836C1369.64 760.91 1384.57 774.842 1398.33 790.151C1401.72 793.924 1403.76 797.967 1406.48 801.281C1433.3 856.197 1453.51 908.085 1465.08 968.498C1470.8 998.369 1455.46 1047.04 1465.59 1068.8C1464.41 1078.63 1458.28 1090.24 1455.26 1100.42C1452.17 1110.86 1450.37 1122.74 1447.26 1132.67C1443.86 1140.85 1437 1158.46 1432.63 1165.33C1432.34 1164.58 1432.05 1163.83 1431.78 1163.07C1428.66 1154.36 1436.78 1141.94 1441.06 1132.9C1444.17 1128.02 1444.96 1120.72 1444.56 1114.98L1443.48 1115.1C1440.24 1120.06 1438.37 1126.81 1436.47 1132.52C1432.56 1139.98 1428.8 1147.53 1425.2 1155.15C1419.43 1166.83 1414.47 1179.62 1408.59 1190.99C1403.9 1200.04 1393.2 1209.02 1388.15 1218.18C1380.92 1230.73 1374.94 1242.59 1367.1 1254.83C1353.5 1276.05 1335.28 1291.89 1317.68 1309.93C1313.64 1313.76 1307.44 1319.35 1303.91 1323.31C1293.58 1329.91 1289.87 1334.12 1282.27 1343.87C1290.35 1340.46 1294.73 1338.24 1301.23 1331.88C1305.74 1328.18 1307.76 1323.8 1312.98 1321.73C1317.05 1321.25 1318.38 1322.67 1322.14 1324.93C1321.68 1335.49 1259.92 1383.39 1249.84 1389.78C1245.54 1392.67 1233.6 1399.43 1231.09 1401.39C1220.7 1405.35 1208.36 1412.39 1198.41 1417.88C1202.45 1413.18 1205.02 1412.11 1204.68 1407.23L1206.39 1406.6C1202.75 1407.1 1194.99 1414.42 1191.28 1417.06C1185.28 1421.9 1155.18 1436.99 1155.02 1437.3C1149.45 1437 1146.65 1437.65 1141.79 1440.6C1125.19 1443.67 1108.81 1447.68 1091.99 1448C1088.98 1449.14 1086.54 1449.85 1083.81 1451.53L1082.57 1453.34C1079.37 1453.84 1077.84 1453.78 1075.21 1455.7C1064.89 1456.05 1017.11 1456.33 1011.17 1460.84C1012.41 1463.19 1012.57 1462.85 1014.74 1464.49L1014.34 1465.21C978.907 1466.89 934.842 1465.04 901.544 1452.17C892.868 1448.82 842.735 1420.51 840.642 1420.46C832.311 1413.43 823.466 1402.63 814.85 1395.14C803.801 1385.54 792.554 1377.77 780.978 1368.86C761.006 1342.84 754.611 1317.25 763.294 1285.78C769.133 1271.78 771.697 1265.79 782.702 1255.13C793.865 1271.76 796.27 1271.93 814.554 1280.02C818.443 1281.75 826.057 1292.02 831.295 1294.32C838.915 1297.67 846.398 1298.47 854.165 1301.2C864.456 1305.1 875.794 1314.16 886.5 1316.75C929.226 1327.07 974.906 1324.29 1018.52 1330.42C1039.15 1333.32 1067.19 1321.16 1086.42 1315.3C1099.64 1311.28 1113.53 1306.64 1126.74 1302.33C1150.62 1292.9 1173.15 1279.34 1195 1265.98C1203.71 1260.67 1207.21 1253.26 1214.74 1246.88C1225.51 1234.87 1238.86 1221.26 1245.6 1206.82C1253.32 1190.29 1257.04 1175.28 1268.9 1160.8C1276.52 1151.5 1283.68 1139.3 1290.54 1129.33C1293.24 1125.41 1294.27 1113.6 1296.64 1108.8C1303.28 1092.51 1312.41 1077.14 1315.51 1059.64C1320.15 1035 1329.03 1010.63 1332.84 985.902C1337.49 955.703 1334.27 924.176 1322.52 895.953C1314.12 874.891 1308.4 852.856 1297.37 832.903C1288.11 816.155 1276.88 801.038 1265.45 785.743C1262.52 781.444 1258.6 776.513 1255.4 772.293C1255.46 769.371 1236.42 746.204 1234.51 736.324L1235.43 735.64C1237.32 736.693 1239.17 737.644 1241.2 738.39L1245 741.302C1248.99 744.605 1255.58 750.016 1260.52 751.389L1260.64 750.24C1257.46 745.63 1252.51 741.706 1248.26 737.912C1239.92 729.88 1236.14 722.02 1226.21 713.684C1212.04 697.106 1170.18 679.804 1151.7 669.077C1153.72 668.33 1163.14 672.672 1167.75 672.602L1167.19 671.281C1146.79 659.174 1152.32 666.588 1134.25 664.362C1112.98 660.859 1088.2 655.338 1067.36 650.139C1062.7 646.285 1057.96 647.596 1051.47 645.344C1024 635.805 997.611 630.105 968.794 626.784C958.043 625.545 946.838 623.102 935.892 624.534C914.525 627.329 908.937 629.854 887.249 625.35C878.747 629.804 871.616 632.757 862.354 635.394C830.823 644.371 802.856 661.426 778.354 682.861C769.262 683.897 763.252 685.627 754.738 689.18L753.293 688.584C762.821 672.619 803.161 639.235 820.211 629.371C824.653 626.802 841.919 616.811 844.109 614.483ZM778.354 682.861C802.856 661.426 830.823 644.371 862.354 635.394C871.616 632.757 878.747 629.804 887.249 625.35C908.937 629.854 914.525 627.329 935.892 624.534C946.838 623.102 958.043 625.545 968.794 626.784C997.611 630.105 1024 635.805 1051.47 645.344C1057.96 647.596 1062.7 646.285 1067.36 650.139C1088.2 655.338 1112.98 660.859 1134.25 664.362C1152.32 666.588 1146.79 659.174 1167.19 671.281L1167.75 672.602C1163.14 672.672 1153.72 668.33 1151.7 669.077C1170.18 679.804 1212.04 697.106 1226.21 713.684C1236.14 722.02 1239.92 729.88 1248.26 737.912C1252.51 741.706 1257.46 745.63 1260.64 750.24L1260.52 751.389C1255.58 750.016 1248.99 744.605 1245 741.302L1241.2 738.39C1239.17 737.644 1237.32 736.693 1235.43 735.64L1234.51 736.324C1236.42 746.204 1255.46 769.371 1255.4 772.293C1258.6 776.513 1262.52 781.444 1265.45 785.743C1276.88 801.038 1288.11 816.155 1297.37 832.903C1308.4 852.856 1314.12 874.891 1322.52 895.953C1334.27 924.176 1337.49 955.703 1332.84 985.902C1329.03 1010.63 1320.15 1035 1315.51 1059.64C1312.41 1077.14 1303.28 1092.51 1296.64 1108.8C1294.27 1113.6 1293.24 1125.41 1290.54 1129.33C1283.68 1139.3 1276.52 1151.5 1268.9 1160.8C1257.04 1175.28 1253.32 1190.29 1245.6 1206.82C1238.86 1221.26 1225.51 1234.87 1214.74 1246.88C1207.09 1278.84 1145.49 1308.95 1118.16 1324.71C1108.77 1330.13 1094.21 1330.49 1083.35 1338.81L1083.08 1341.52C1090.97 1339.79 1098.09 1336.82 1106.17 1335.1C1106.85 1335.13 1116.88 1336.08 1116.12 1336.24C1138.48 1331.61 1151.79 1327.72 1170.35 1314.47L1169.52 1311.72C1173.44 1308.87 1176.21 1306.78 1180.93 1306.21C1180.94 1304.7 1180.6 1304.86 1179.53 1303.13C1202.59 1290.22 1213.41 1279.43 1234.01 1264.43C1243.86 1257.25 1243.39 1252.32 1250.26 1245.52C1255.97 1239.86 1263.55 1237.64 1269.04 1229.11L1271.97 1224.57C1273.86 1221.66 1272.83 1222.4 1275.57 1220.84L1277.24 1222.02C1277.75 1227.6 1271.89 1234.82 1268.63 1239.61C1274.7 1235.1 1287.23 1226.13 1291.57 1219.63C1300.81 1205.81 1311.53 1192.88 1321.15 1179.36C1323.99 1175.36 1326.3 1169.01 1329.06 1164.47L1329.65 1163.53L1327.12 1161.05C1323.63 1170.51 1293.61 1207.53 1286.24 1216.66C1297.67 1186.41 1314.37 1161.29 1332.86 1135.15C1337.06 1129.21 1343.96 1118.53 1349.49 1114.21L1351.25 1112.59C1354.51 1110.97 1358.34 1108.51 1361.53 1106.61C1362.29 1102.21 1363.85 1092.74 1365.2 1088.92C1370.53 1073.69 1373.69 1071.46 1374.63 1054.82C1373.78 1049.73 1373.52 1046.67 1375.27 1041.93C1383.22 1035.12 1384.73 1023.32 1386.75 1013.71C1392.2 987.783 1393.45 969.08 1388.99 942.974C1386.4 927.825 1384.25 906.462 1383.28 891.019L1390.45 913.971C1391.31 905.431 1391.99 896.744 1392.75 888.182C1393.69 894.846 1394.48 901.694 1395.32 908.386C1397.78 910.925 1400.53 914.413 1402.83 917.17C1403.09 927.376 1405.87 940.81 1406.97 951.32C1407.86 959.824 1408.21 967.359 1408.58 975.913L1408.92 974.929C1420.75 939.21 1392.07 853.418 1376.99 818.223C1370.54 803.157 1355.41 786.42 1348.21 771.226C1335.24 758.575 1325.24 747.604 1313.18 734C1304.78 726.414 1296.62 717.136 1290.85 707.38C1295.98 710.02 1300.68 713.446 1305.47 716.702C1307.28 714.414 1307.16 714.587 1307.66 711.695C1286.49 689.985 1261.8 667.399 1236.08 651.208C1229.27 646.909 1224.44 643.564 1218.24 638.319C1231.65 641.297 1234.18 643.308 1244.52 652.685C1247.61 653.83 1255.6 658.381 1258.1 660.391C1260.9 662.035 1262.11 663.178 1265.3 662.89L1265.79 661.546L1260.07 657.494C1255.29 657.573 1240.74 643.998 1240.22 639.428L1242.45 637.635C1230.16 629.032 1216.38 621.907 1202.66 615.886C1198.92 614.243 1190.5 611.753 1188.99 608.334C1172.01 599.207 1171.13 602.201 1154.94 597.301C1142.19 592.732 1129.54 586.701 1116.24 583.956C1099.69 580.539 1081.58 579.817 1064.94 578.5C1027.29 575.519 989.048 569.858 951.907 579.356C943.515 581.503 932.747 581.131 924.31 584.34C913.731 587.404 903.256 592.25 892.9 595.674C875.138 601.546 860.874 605.613 844.109 614.483C841.919 616.811 824.653 626.802 820.211 629.371C803.161 639.235 762.821 672.619 753.293 688.584L754.738 689.18C763.252 685.627 769.262 683.897 778.354 682.861ZM1030.04 1440.53L1026.36 1441.97L1025.74 1443.66C1030.03 1449.08 1036.69 1448.49 1042.57 1447.05C1046.81 1445.62 1046.5 1446.42 1049.07 1443.52C1046.25 1438.54 1035.09 1440.1 1030.04 1440.53ZM1073.26 1440.71C1104.46 1435.6 1138.97 1433.29 1167.21 1420.7C1175.93 1416.74 1184.41 1412.25 1192.59 1407.25C1195.07 1405.75 1204.93 1399.48 1206.72 1398.71C1223.73 1391.56 1226.66 1389.59 1241.16 1378.25C1255.95 1366.69 1271.1 1358.86 1283.43 1343.49C1265.94 1350.03 1263.49 1357.58 1249.02 1368.68C1242.7 1373.54 1237.17 1376.44 1230.1 1380.11C1217.7 1386.56 1205.33 1393.07 1192.99 1399.64C1178 1407.82 1175.47 1410.4 1158.99 1416.95C1134.38 1426.73 1093.34 1428.56 1073.26 1440.71Z"/><path fill="#E2C6B0" d="M844.109 614.483C860.874 605.613 875.138 601.546 892.9 595.674C903.256 592.25 913.731 587.404 924.31 584.34C932.747 581.131 943.515 581.503 951.907 579.356C989.048 569.858 1027.29 575.519 1064.94 578.5C1081.58 579.817 1099.69 580.539 1116.24 583.956C1129.54 586.701 1142.19 592.732 1154.94 597.301C1171.13 602.201 1172.01 599.207 1188.99 608.334C1190.5 611.753 1198.92 614.243 1202.66 615.886C1216.38 621.907 1230.16 629.032 1242.45 637.635L1240.22 639.428C1240.74 643.998 1255.29 657.573 1260.07 657.494L1265.79 661.546L1265.3 662.89C1262.11 663.178 1260.9 662.035 1258.1 660.391C1255.6 658.381 1247.61 653.83 1244.52 652.685C1234.18 643.308 1231.65 641.297 1218.24 638.319C1224.44 643.564 1229.27 646.909 1236.08 651.208C1261.8 667.399 1286.49 689.985 1307.66 711.695C1307.16 714.587 1307.28 714.414 1305.47 716.702C1300.68 713.446 1295.98 710.02 1290.85 707.38C1296.62 717.136 1304.78 726.414 1313.18 734C1325.24 747.604 1335.24 758.575 1348.21 771.226C1355.41 786.42 1370.54 803.157 1376.99 818.223C1392.07 853.418 1420.75 939.21 1408.92 974.929L1408.58 975.913C1408.21 967.359 1407.86 959.824 1406.97 951.32C1405.87 940.81 1403.09 927.376 1402.83 917.17C1400.53 914.413 1397.78 910.925 1395.32 908.386C1394.48 901.694 1393.69 894.846 1392.75 888.182C1391.99 896.744 1391.31 905.431 1390.45 913.971L1383.28 891.019C1384.25 906.462 1386.4 927.825 1388.99 942.974C1393.45 969.08 1392.2 987.783 1386.75 1013.71C1384.73 1023.32 1383.22 1035.12 1375.27 1041.93C1373.52 1046.67 1373.78 1049.73 1374.63 1054.82C1373.69 1071.46 1370.53 1073.69 1365.2 1088.92C1363.85 1092.74 1362.29 1102.21 1361.53 1106.61C1358.34 1108.51 1354.51 1110.97 1351.25 1112.59L1349.49 1114.21C1343.96 1118.53 1337.06 1129.21 1332.86 1135.15C1314.37 1161.29 1297.67 1186.41 1286.24 1216.66C1293.61 1207.53 1323.63 1170.51 1327.12 1161.05L1329.65 1163.53L1329.06 1164.47C1326.3 1169.01 1323.99 1175.36 1321.15 1179.36C1311.53 1192.88 1300.81 1205.81 1291.57 1219.63C1287.23 1226.13 1274.7 1235.1 1268.63 1239.61C1271.89 1234.82 1277.75 1227.6 1277.24 1222.02L1275.57 1220.84C1272.83 1222.4 1273.86 1221.66 1271.97 1224.57L1269.04 1229.11C1263.55 1237.64 1255.97 1239.86 1250.26 1245.52C1243.39 1252.32 1243.86 1257.25 1234.01 1264.43C1213.41 1279.43 1202.59 1290.22 1179.53 1303.13C1180.6 1304.86 1180.94 1304.7 1180.93 1306.21C1176.21 1306.78 1173.44 1308.87 1169.52 1311.72L1170.35 1314.47C1151.79 1327.72 1138.48 1331.61 1116.12 1336.24C1116.88 1336.08 1106.85 1335.13 1106.17 1335.1C1098.09 1336.82 1090.97 1339.79 1083.08 1341.52L1083.35 1338.81C1094.21 1330.49 1108.77 1330.13 1118.16 1324.71C1145.49 1308.95 1207.09 1278.84 1214.74 1246.88C1225.51 1234.87 1238.86 1221.26 1245.6 1206.82C1253.32 1190.29 1257.04 1175.28 1268.9 1160.8C1276.52 1151.5 1283.68 1139.3 1290.54 1129.33C1293.24 1125.41 1294.27 1113.6 1296.64 1108.8C1303.28 1092.51 1312.41 1077.14 1315.51 1059.64C1320.15 1035 1329.03 1010.63 1332.84 985.902C1337.49 955.703 1334.27 924.176 1322.52 895.953C1314.12 874.891 1308.4 852.856 1297.37 832.903C1288.11 816.155 1276.88 801.038 1265.45 785.743C1262.52 781.444 1258.6 776.513 1255.4 772.293C1255.46 769.371 1236.42 746.204 1234.51 736.324L1235.43 735.64C1237.32 736.693 1239.17 737.644 1241.2 738.39L1245 741.302C1248.99 744.605 1255.58 750.016 1260.52 751.389L1260.64 750.24C1257.46 745.63 1252.51 741.706 1248.26 737.912C1239.92 729.88 1236.14 722.02 1226.21 713.684C1212.04 697.106 1170.18 679.804 1151.7 669.077C1153.72 668.33 1163.14 672.672 1167.75 672.602L1167.19 671.281C1146.79 659.174 1152.32 666.588 1134.25 664.362C1112.98 660.859 1088.2 655.338 1067.36 650.139C1062.7 646.285 1057.96 647.596 1051.47 645.344C1024 635.805 997.611 630.105 968.794 626.784C958.043 625.545 946.838 623.102 935.892 624.534C914.525 627.329 908.937 629.854 887.249 625.35C878.747 629.804 871.616 632.757 862.354 635.394C830.823 644.371 802.856 661.426 778.354 682.861C769.262 683.897 763.252 685.627 754.738 689.18L753.293 688.584C762.821 672.619 803.161 639.235 820.211 629.371C824.653 626.802 841.919 616.811 844.109 614.483ZM1139.75 658.691L1141.29 659.091C1138.34 654.012 1126.06 651.046 1120.53 648.962C1108.73 644.517 1103.89 640.589 1090.88 641.818L1085.91 644.489C1090.42 647.046 1134.05 658.175 1139.75 658.691ZM1204.38 634.654C1202.16 629.892 1182.66 619.367 1177.48 618.696C1180.89 630.348 1191.93 639.955 1204.38 634.654Z"/><path fill="#E2C6B0" d="M1371.21 1054.09L1374.63 1054.82C1373.69 1071.46 1370.53 1073.69 1365.2 1088.92C1363.85 1092.74 1362.29 1102.21 1361.53 1106.61C1358.34 1108.51 1354.51 1110.97 1351.25 1112.59L1349.49 1114.21C1348.09 1107.66 1347.74 1104.4 1349.03 1097.85L1351.02 1097.86C1354.74 1089.53 1358.5 1086.19 1364.74 1079.61C1365.89 1069.76 1367.51 1064.43 1370.18 1054.96L1371.21 1054.09Z"/><path fill="#423A33" d="M1349.03 1097.85L1351.02 1097.86C1350.21 1102.14 1349.48 1102.14 1350.79 1105.54C1354.27 1104.89 1355.17 1104.18 1358.22 1102.51C1357.45 1107.68 1353.56 1107.81 1351.25 1112.59L1349.49 1114.21C1348.09 1107.66 1347.74 1104.4 1349.03 1097.85Z"/><path fill="#283027" d="M1349.03 1097.85C1350.81 1090.25 1354.65 1080.85 1357.87 1073.67C1360.99 1066.73 1362.27 1056.7 1368.74 1053.36L1370.18 1054.96C1367.51 1064.43 1365.89 1069.76 1364.74 1079.61C1358.5 1086.19 1354.74 1089.53 1351.02 1097.86L1349.03 1097.85Z"/><path fill="#423A33" d="M1368.74 1053.36L1369.94 1051.01C1367.28 1044.25 1371.34 1022.42 1376.27 1018.36C1376.61 1023.8 1375.03 1029.48 1373.91 1034.91C1374.24 1037.1 1374.49 1039.97 1375.27 1041.93C1373.52 1046.67 1373.78 1049.73 1374.63 1054.82L1371.21 1054.09L1370.18 1054.96L1368.74 1053.36Z"/><path fill="#ECE3D8" d="M1373.91 1034.91C1374.24 1037.1 1374.49 1039.97 1375.27 1041.93C1373.52 1046.67 1373.78 1049.73 1374.63 1054.82L1371.21 1054.09C1371.83 1046.47 1372.11 1042.27 1373.91 1034.91Z"/><path fill="#423A33" d="M1106.17 1335.1C1116.95 1329.56 1125.74 1325.24 1136.88 1320.44C1132.76 1323.43 1118.22 1333.08 1116.12 1336.24C1116.88 1336.08 1106.85 1335.13 1106.17 1335.1Z"/><path fill="#423A33" d="M1169.52 1311.72C1168.28 1312.08 1166.41 1312.44 1165.18 1312.71L1165.03 1311.85C1169.73 1308.06 1174.23 1305.92 1179.53 1303.13C1180.6 1304.86 1180.94 1304.7 1180.93 1306.21C1176.21 1306.78 1173.44 1308.87 1169.52 1311.72Z"/><path fill="#FCFCFC" fill-opacity="0.05882353" d="M1090.88 641.818C1103.89 640.589 1108.73 644.517 1120.53 648.962C1126.06 651.046 1138.34 654.012 1141.29 659.091L1139.75 658.691C1134.05 658.175 1090.42 647.046 1085.91 644.489L1090.88 641.818Z"/><path fill="#FCFCFC" fill-opacity="0.027450981" d="M1177.48 618.696C1182.66 619.367 1202.16 629.892 1204.38 634.654C1191.93 639.955 1180.89 630.348 1177.48 618.696Z"/><path fill="#423A33" d="M1379.24 969.456C1380.37 970.072 1380.9 970.707 1381.89 971.598C1384.57 979.366 1381.32 996.051 1379.92 1004.45L1379.25 1004.54L1378.33 1003.59C1377.66 994.223 1375.54 977.485 1379.24 969.456Z"/><path fill="#423A33" d="M1373.01 923.735C1378.8 928.096 1379.22 941.467 1379.76 948.233C1376.25 944.67 1373.96 928.951 1373.01 923.735Z"/><path fill="#E2C6B0" d="M1072.18 1341.3L1076.03 1343.52C1068.07 1346.89 1041.58 1358.78 1034.38 1352.22C1038.8 1345.98 1063.87 1342.8 1072.18 1341.3Z"/><path fill="#ECE3D8" d="M1327.12 1161.05C1329.8 1154.81 1331.05 1151.26 1336.63 1147.46L1338.46 1147.57C1339.26 1153.46 1333.48 1159.23 1329.65 1163.53L1327.12 1161.05Z"/><path fill="#A69384" d="M1169.52 1311.72C1173.44 1308.87 1176.21 1306.78 1180.93 1306.21C1177.08 1310.15 1174.84 1311.48 1170.35 1314.47L1169.52 1311.72Z"/><path fill="#A69384" d="M1072.18 1341.3C1077.35 1340.73 1078.49 1340.57 1083.35 1338.81L1083.08 1341.52L1076.03 1343.52L1072.18 1341.3Z"/><path fill="#FCFCFC" fill-opacity="0.047058824" d="M1230.1 1380.11L1232.38 1381.08C1232.39 1389.71 1212.8 1390.61 1206.72 1398.71C1204.93 1399.48 1195.07 1405.75 1192.59 1407.25C1184.41 1412.25 1175.93 1416.74 1167.21 1420.7C1138.97 1433.29 1104.46 1435.6 1073.26 1440.71C1093.34 1428.56 1134.38 1426.73 1158.99 1416.95C1175.47 1410.4 1178 1407.82 1192.99 1399.64C1205.33 1393.07 1217.7 1386.56 1230.1 1380.11Z"/><path fill="#ECE3D8" fill-opacity="0.34901962" d="M1283.43 1343.49C1271.1 1358.86 1255.95 1366.69 1241.16 1378.25C1226.66 1389.59 1223.73 1391.56 1206.72 1398.71C1212.8 1390.61 1232.39 1389.71 1232.38 1381.08L1230.1 1380.11C1237.17 1376.44 1242.7 1373.54 1249.02 1368.68C1263.49 1357.58 1265.94 1350.03 1283.43 1343.49Z"/><path fill="#E2C6B0" d="M1264.94 1242.85L1266.45 1244.62C1265.04 1251.61 1250.57 1261.84 1244.82 1266.14L1243.81 1265.74C1243.06 1257.95 1258.62 1246.55 1264.94 1242.85Z"/><path fill="#FCFCFC" fill-opacity="0.023529412" d="M1030.04 1440.53C1035.09 1440.1 1046.25 1438.54 1049.07 1443.52C1046.5 1446.42 1046.81 1445.62 1042.57 1447.05C1036.69 1448.49 1030.03 1449.08 1025.74 1443.66L1026.36 1441.97L1030.04 1440.53Z"/><path fill="#A69384" d="M1229.97 1279.26L1230.52 1280.34C1227.92 1282.97 1224.03 1284.22 1220.53 1285.69C1219.72 1284.77 1220.08 1285.4 1219.93 1283.62C1222.31 1281.39 1226.69 1280.34 1229.97 1279.26Z"/><path fill="#A9C0AE" d="M887.249 625.35C908.937 629.854 914.525 627.329 935.892 624.534C946.838 623.102 958.043 625.545 968.794 626.784C997.611 630.105 1024 635.805 1051.47 645.344C1057.96 647.596 1062.7 646.285 1067.36 650.139C1062.31 649.895 1056.64 649.484 1051.64 649.469C1078.44 658.231 1097 664.977 1123.24 675.808C1135.29 681.642 1180.95 706.637 1187.19 715.053C1189.85 719.336 1194.52 723.524 1198.18 727.173C1182.97 716.491 1154.78 696.397 1136.99 691.519C1134.19 689.657 1120.91 683.932 1117.14 682.312C1093.43 671.874 1069.13 662.821 1044.37 655.199C1024.44 646.606 992.42 649.493 969.547 647.895C976.489 653.085 995.794 654.095 1006.11 656.238C1011.71 660.263 1060.41 671 1070.84 675.192C1100.61 687.161 1131.27 699.778 1158.89 716.303C1167.15 721.245 1179.4 738.508 1185.94 746.349C1190.85 752.245 1200.79 759.666 1204.36 764.267C1216.06 779.36 1223.36 788.692 1237.33 802.329L1237.22 806.198L1236.14 807.102L1235.41 806.561C1233.07 804.847 1233.52 804.796 1230.84 804.167C1225.45 799.849 1214.18 785.958 1209.52 782.191C1191.42 767.541 1117.41 706.576 1097.66 705.423C1096.67 704.782 1093.3 703.696 1092 703.231C1089.13 702.104 1084.25 699.994 1081.39 699.432L1079.5 701.139L1080.54 699.267L1079.1 700.792L1080.52 702.094L1078.37 699.383L1079.27 699.15L1078.42 700.197C1082.57 704.722 1085.74 705.284 1091.34 708.209C1101.34 712.68 1111.26 717.319 1121.1 722.124L1120.85 722.586L1117.07 723.238C1113.99 731.016 1107.91 728.066 1101.79 726.397C1097.4 725.174 1081.78 718.612 1076 716.61C1069.69 714.185 1064.02 713.074 1057.67 711.549C1028.74 704.592 1001.95 698.572 972.032 699.506C964.43 699.743 949.734 696.937 941.501 695.673C917.412 712.074 917.349 704.309 893.632 710.517C876.352 715.041 849.499 723.946 832.878 730.863C827.265 733.199 815.918 741.579 810.299 745.349C803.033 750.225 799.011 750.181 793.259 756.908L791.583 759.508C791.827 760.07 792.071 760.631 792.315 761.193C790.652 763.788 790.767 762.895 790.475 765.858C790.364 766.986 786.396 770.73 785.683 772.213C769.281 786.223 753.722 801.189 739.086 817.035L746.52 803.248C750.305 796.499 755.218 796.776 758.8 788.953L759.563 787.411L760.564 784.333L759.288 782.855C757.265 783.555 710.486 832.584 706.169 838.065C699.572 846.4 693.907 855.433 689.276 865.002C685.643 872.426 682.792 876.482 685.057 883.341C687.984 892.205 672.211 908.378 669.341 917.024C668.187 920.502 667.717 928.346 667.842 932.341C665.723 934.475 662.134 935.85 659.331 937.166C657.121 945.749 652.217 956.998 652.827 965.335C653.313 971.98 653.053 973.097 651.61 979.778C653.394 983.9 654.722 986.72 655.875 991.137L654.275 995.497C629.847 1012.64 631.598 1091.01 638.315 1118C638.496 1124.59 641.385 1129.01 642.295 1135.06C644.514 1149.83 651.454 1176.22 658.508 1189.2C661.233 1196.42 663.976 1202.08 667.34 1209.05C668.882 1212.69 674.61 1217.69 677.971 1219.12C677.79 1228.53 687.219 1243.32 692.188 1251.81C692.516 1255.59 692.924 1256.81 694.327 1260.36L693.675 1261.64C691.339 1260.89 691.184 1260.92 689.147 1259.61C683.49 1254.02 681.357 1252.17 673.973 1249.3C670.807 1244.17 667.967 1239.63 664.519 1234.67C659.422 1220.89 659.743 1222.76 650.216 1213.19L650.174 1212.27C649.184 1206.93 636.474 1185.86 631.37 1184.52L628.631 1186.2C625.976 1182.98 624.629 1176.63 622.374 1172.26C619.095 1166.3 617.227 1158.83 613.063 1153.68C612.27 1152.69 608.208 1151.22 607.837 1150.37C597.286 1125.43 595.549 1096.81 589.922 1070.39C585.69 1050.51 578.929 1029.58 579.096 1009.1C579.26 988.959 591.123 972.371 588.341 951.589C587.422 944.726 593.793 929.029 595.304 922.131C599.614 905.161 606.804 888.763 614.298 872.974C618.237 864.473 621.218 853.508 625.421 844.493C639.258 814.815 657.107 789.76 674.387 762.258C677.399 757.463 684.811 753.663 688.602 748.323C694.399 740.157 697.507 731.901 704.296 724.563C717.603 710.18 739.037 702.805 752.254 689.629L753.293 688.584L754.738 689.18C763.252 685.627 769.262 683.897 778.354 682.861C802.856 661.426 830.823 644.371 862.354 635.394C871.616 632.757 878.747 629.804 887.249 625.35Z"/><path fill="#E2C6B0" d="M969.547 647.895L967.537 648.063L965.986 649.847C955.546 650.326 931.273 648.29 922.263 642.488L922.692 641.418C934.532 639.23 954.127 639.926 966.75 640.049C988.821 640.712 996.115 641.018 1017.61 647.054C1008.68 647.21 974.97 645.84 969.547 647.895Z"/><path fill="#E2C6B0" d="M852.166 1113.76C907.598 1069.59 970.621 1103.53 1031.16 1071.26C1043.28 1064.81 1055.48 1056.11 1064.96 1045.98C1069.36 1041.28 1076.7 1030.57 1081.25 1027.21C1083.46 1030.19 1084.1 1038.83 1084.69 1042.94C1088.66 1070.58 1090 1099.26 1086.48 1126.97C1080 1177.91 1040.77 1226.35 1000.95 1256.7C959.709 1288.13 894.626 1292.77 850.756 1264.55C855.768 1262.37 871.882 1265.95 878.022 1267.03C913.012 1273.18 938.319 1264.05 962.494 1238.47C966.132 1236.69 973.475 1227.48 976.614 1223.83C980.881 1218.67 990.626 1207.83 991.852 1201.82C987.079 1203.08 976.711 1217.34 972.447 1222.2C970.897 1223.81 965.393 1229.26 964.685 1231.14C930.419 1255.59 912.18 1260.66 868.926 1254.07C862.334 1253.06 849.835 1250.45 843.61 1248.54C835.309 1246.27 802.873 1236.78 799.345 1230.62C798.351 1223.64 801.447 1211.09 803.771 1204.23C819.804 1156.96 864.311 1138.68 910.881 1135.47C928.209 1134.27 947.474 1136.85 964.684 1133.49C975.408 1131.4 986.594 1125.37 996.453 1120.51C988.128 1120.15 967.373 1123.75 956.845 1124.02C906.742 1125.3 882.566 1117.26 836.214 1140.82C834.708 1140.02 835.323 1140.59 834.417 1139.04C837.091 1134.84 847.601 1121.11 851.177 1117.49L852.258 1116.41L852.166 1113.76Z"/><path fill="#A9C0AE" d="M714.54 1182.31C706.044 1171.38 701.849 1165.13 697.268 1151.95C683.407 1112.14 696.428 1057.08 723.621 1025.73C748.909 996.567 780.895 973.3 790.683 933.328C791.957 928.125 792.256 921.392 794.6 916.726L796.187 916.599C797.133 917.356 798.427 918.336 799.139 919.335C828.738 960.9 853.068 1009.51 856.67 1061.09C857.409 1071.67 856.313 1082.91 855.174 1093.44C854.503 1099.64 852.921 1105.83 852.329 1111.97L852.166 1113.76L852.258 1116.41L851.177 1117.49C847.601 1121.11 837.091 1134.84 834.417 1139.04C835.323 1140.59 834.708 1140.02 836.214 1140.82C829.661 1146.33 803.299 1166.47 796.167 1168.11C796.076 1164.76 798.848 1160.29 800.448 1157.09C816.893 1121.85 814.882 1100.22 801.631 1063.74C800.369 1060.25 799.071 1056.78 797.738 1053.31C788.074 1082.45 770.725 1090.62 749.797 1110.9C730.438 1129.66 721.633 1153.78 735.575 1179.15L737.357 1182.92C730.911 1184.74 725.126 1171.3 714.54 1182.31Z"/><path fill="#E2C6B0" d="M753.565 1171.75C751.937 1144.77 759.073 1122.66 777.349 1102.87C780.612 1099.33 786.558 1091.42 791.158 1091.14C799.031 1097.19 798.325 1130.57 797.067 1140.66C794.245 1151.87 791.449 1159.93 787.301 1170.77C782.589 1180.09 776.228 1195.48 776.04 1205.95L772.827 1218.99C759.606 1205.68 755.281 1190.07 753.565 1171.75Z"/><path fill="#FCFCFC" fill-opacity="0.0078431377" d="M1044.37 655.199C1069.13 662.821 1093.43 671.874 1117.14 682.312C1120.91 683.932 1134.19 689.657 1136.99 691.519C1143.4 695.961 1151.12 699.385 1157.88 703.376C1173.9 712.836 1189.34 721.582 1202.8 734.492L1198.69 736.381L1197.55 735.953C1198.73 740.426 1224.39 761.226 1231.24 768.148L1231.22 769.034C1229.92 776.012 1226.04 771.14 1231.66 780.787L1230.93 780.975C1231.97 782.03 1233.02 782.621 1233.05 784.068C1230.7 788.84 1239.85 800.34 1242.63 804.601C1223.2 786.601 1219.28 780.922 1204.03 759.659C1207.95 761.171 1214.3 764.289 1218.15 763.046L1218.41 761.473C1215.56 759.336 1209.03 754.541 1205.79 754.5L1204.53 756.997C1195.39 760.567 1177.75 732.076 1172.65 726.079C1160.4 711.662 1141.34 704.614 1125.09 696.313C1093.3 680.067 1062.07 670.69 1027.96 661.238C1031.83 661.177 1037.64 660.405 1041.43 659.257C1043.55 658.615 1042.98 658.171 1044.37 655.199Z"/><path fill="#283027" d="M714.54 1182.31C725.126 1171.3 730.911 1184.74 737.357 1182.92C743.229 1190.95 752.362 1200.5 759.244 1207.88C760.206 1212.2 761.546 1219.23 762.978 1223.19C766.775 1230.21 772.133 1238.04 776.529 1244.82C772.565 1244.06 768.647 1243.08 764.793 1241.88C748.325 1236.75 728.365 1221.19 721.627 1204.88C718.597 1197.54 718.769 1189.63 714.54 1182.31Z"/><path fill="#B6BDB9" fill-opacity="0.39215687" d="M615.55 1179.86C609.155 1163.05 601.899 1142.95 597.818 1125.6C593.349 1109.27 592.25 1085.73 587.94 1070.22C577.706 1033.4 571.898 1006.08 585.651 969.256C587.407 959.708 585.406 949.469 587.865 940.006C596.421 907.08 610.503 875.978 623.374 844.549C634.931 816.329 655.866 789.222 671.627 763.202C675.212 757.285 683.566 751.292 687.952 745.791C699.853 718.612 720.032 710.321 743.193 694.891C750.355 690.12 763.54 673.675 770.397 666.656C780.134 656.687 830.591 614.511 844.109 614.483C841.919 616.811 824.653 626.802 820.211 629.371C803.161 639.235 762.821 672.619 753.293 688.584L752.254 689.629C739.037 702.805 717.603 710.18 704.296 724.563C697.507 731.901 694.399 740.157 688.602 748.323C684.811 753.663 677.399 757.463 674.387 762.258C657.107 789.76 639.258 814.815 625.421 844.493C621.218 853.508 618.237 864.473 614.298 872.974C606.804 888.763 599.614 905.161 595.304 922.131C593.793 929.029 587.422 944.726 588.341 951.589C591.123 972.371 579.26 988.959 579.096 1009.1C578.929 1029.58 585.69 1050.51 589.922 1070.39C595.549 1096.81 597.286 1125.43 607.837 1150.37C608.208 1151.22 612.27 1152.69 613.063 1153.68C617.227 1158.83 619.095 1166.3 622.374 1172.26L622.294 1177.37C618.94 1169.55 615.16 1160 610.731 1152.85C612.558 1159.63 620.452 1180.04 618.878 1183.76C617.725 1182.45 616.651 1181.22 615.55 1179.86Z"/><path fill="#828282" fill-opacity="0.019607844" d="M843.61 1248.54C849.835 1250.45 862.334 1253.06 868.926 1254.07C912.18 1260.66 930.419 1255.59 964.685 1231.14L965.195 1233.59C963.155 1236.12 962.667 1235.82 962.494 1238.47C938.319 1264.05 913.012 1273.18 878.022 1267.03C871.882 1265.95 855.768 1262.37 850.756 1264.55C846.433 1263.23 845.245 1263.85 840.839 1261.62C836.335 1254.12 842.568 1254.06 843.61 1248.54ZM868.924 1260.01L871.47 1257.93C868.134 1256.45 865.118 1257.11 861.282 1256.31L858.038 1258.25L857.63 1259.92C860.98 1261.53 865.368 1260.67 868.924 1260.01Z"/><path fill="#FCFCFC" fill-opacity="0.019607844" d="M654.275 995.497C654.666 1002.81 647.721 1040.86 644.252 1047.58L641.991 1048.6C639.21 1047.34 639.425 1047.25 637.613 1044.71C637.459 1051.03 636.569 1066.11 637.879 1071.41L639.01 1072.06C640.618 1067.87 640.321 1059.43 641.534 1058.78C641.339 1073.92 645.867 1077.34 645.508 1087.44L643.747 1083.51L642.755 1083.9C641.269 1095.01 647.712 1129.83 648.547 1142.73C645.522 1137 640.106 1119.94 638.315 1118C631.598 1091.01 629.847 1012.64 654.275 995.497Z"/><path fill="#FCFCFC" fill-opacity="0.015686275" d="M1249.84 1389.78C1249.31 1393.67 1248.4 1394.56 1250.07 1396.93L1251.71 1397.65C1246.43 1401.07 1216.6 1416.66 1214.59 1419.15C1207.96 1422.44 1194.53 1427.24 1194.76 1435.44C1192.63 1435.31 1193.29 1435.41 1191.53 1434.5C1182.85 1429.99 1175.7 1435.94 1169.97 1441.24C1162.48 1443.07 1161.88 1441.08 1157.06 1441.9L1155.02 1437.3C1155.18 1436.99 1185.28 1421.9 1191.28 1417.06C1194.13 1417.11 1194.36 1417.41 1196.7 1419.04C1202.5 1418.56 1226.37 1405.3 1231.09 1401.39C1233.6 1399.43 1245.54 1392.67 1249.84 1389.78Z"/><path fill="#FCFCFC" fill-opacity="0.3882353" d="M941.501 695.673C949.734 696.937 964.43 699.743 972.032 699.506C1001.95 698.572 1028.74 704.592 1057.67 711.549C1064.02 713.074 1069.69 714.185 1076 716.61L1073.89 718.276C1053.95 711.688 1022.76 705.996 1001.63 702.867C994.833 701.86 981.27 702.518 973.608 701.923C962.842 701.088 953.165 699.731 942.491 698.258C936.063 702.215 932.027 704.902 925 707.676C912.975 709.351 897.742 710.653 886.804 715.221C894.314 714.259 900.923 713.134 908.507 713.926C890.313 716.782 854.579 722.488 839.765 734.108L839.149 733.791L840.42 731.187C835.224 729.66 819.088 740.477 815.899 744.791L817.163 746.173L817.622 747.88C811.365 748.261 809.221 750.097 803.766 753.369L802.321 751.7C798.206 752.662 796.854 754.901 793.259 756.908C799.011 750.181 803.033 750.225 810.299 745.349C815.918 741.579 827.265 733.199 832.878 730.863C849.499 723.946 876.352 715.041 893.632 710.517C917.349 704.309 917.412 712.074 941.501 695.673Z"/><path fill="#FCFCFC" fill-opacity="0.043137256" d="M1432.63 1165.33C1437 1158.46 1443.86 1140.85 1447.26 1132.67C1447.41 1139.75 1446.3 1139.8 1453.39 1142.48C1453.29 1145.05 1453.78 1143.97 1452.45 1145.93L1451.3 1144.15C1445.12 1145 1441.25 1157.26 1445.31 1162C1443.24 1163.93 1443.29 1163.55 1440.71 1164.72C1438.1 1168.94 1438.77 1172.24 1440.93 1176.34L1440.45 1179.11L1438.82 1180.08L1437.63 1176.54L1436.12 1176.5C1434.26 1178.56 1428.36 1190.13 1427.51 1192.53C1424.06 1202.35 1399.62 1241.16 1399.32 1248.11C1398.49 1250.93 1393.99 1257.7 1391.51 1259.39L1389.7 1259.2C1388.86 1257.43 1388.2 1255.16 1386.94 1254.2L1396.37 1240.48C1398.46 1236.82 1400.78 1231.63 1402.68 1227.73C1409.45 1217.5 1417.89 1205.47 1422.59 1194.34C1424.27 1188.03 1430.08 1176.85 1429.67 1173.01C1430.3 1170.28 1431.51 1167.94 1432.63 1165.33Z"/><path fill="#A9C0AE" fill-opacity="0.67450982" d="M1006.11 656.238C1012.01 655.947 1022.13 659.36 1027.96 661.238C1062.07 670.69 1093.3 680.067 1125.09 696.313C1141.34 704.614 1160.4 711.662 1172.65 726.079C1177.75 732.076 1195.39 760.567 1204.53 756.997L1205.79 754.5C1209.03 754.541 1215.56 759.336 1218.41 761.473L1218.15 763.046C1214.3 764.289 1207.95 761.171 1204.03 759.659C1219.28 780.922 1223.2 786.601 1242.63 804.601C1239.85 800.34 1230.7 788.84 1233.05 784.068C1235.05 786.137 1237.75 788.759 1239.5 790.933C1240.28 792.398 1240.4 793.274 1241.46 793.916C1243.74 798.243 1247.3 804.815 1243.69 809.499C1243.85 812.311 1243.54 811.334 1244.71 813.819L1244.45 815.498C1242.42 813.539 1240.07 806.51 1237.33 802.329C1223.36 788.692 1216.06 779.36 1204.36 764.267C1200.79 759.666 1190.85 752.245 1185.94 746.349C1179.4 738.508 1167.15 721.245 1158.89 716.303C1131.27 699.778 1100.61 687.161 1070.84 675.192C1060.41 671 1011.71 660.263 1006.11 656.238Z"/><path fill="#828282" fill-opacity="0.031372551" d="M1401.34 849.781L1404.35 850.284C1408.3 849.071 1408.51 848.636 1411.67 845.763C1414.28 850.789 1417.89 858.07 1419.67 863.164C1423.49 874.078 1430.52 914.845 1427.67 925.012L1426.49 924.579C1422.25 914.859 1421.6 900.081 1417.89 888.567L1409.17 880.898C1406.36 870.716 1405.57 857.246 1401.34 849.781Z"/><path fill="#FCFCFC" fill-opacity="0.023529412" d="M787.3 772.914C789.425 770.905 790.132 770.703 792.684 769.341C794.938 773.141 795.274 772.329 795.018 775.936C788.287 786.533 783.279 787.233 773.689 794.953C772.962 795.538 773.242 799.32 773.323 800.353L771.992 801.577L770.929 798.658C766.574 797.045 763.149 801.364 760.189 804.418C749.308 815.643 739.375 828.058 728.255 839.031C729.919 831.34 730.906 829.719 729.008 822.393L728.37 822.3L726.886 819.757C731.717 815.267 737.512 802.577 743.623 804.416C739.099 812.012 734.175 819.705 730.895 827.884C739.678 820.611 747.489 810.289 755.74 802.36C766.185 792.321 777.108 783.264 787.3 772.914Z"/><path fill="#ECE3D8" fill-opacity="0.20784314" d="M648.547 1142.73C647.712 1129.83 641.269 1095.01 642.755 1083.9L643.747 1083.51L645.508 1087.44C647.202 1123.65 656.849 1163.57 669.377 1197.45C671.235 1202.48 677.479 1215.32 677.971 1219.12C674.61 1217.69 668.882 1212.69 667.34 1209.05L668.591 1206.41C667.731 1202.98 648.931 1145.26 648.382 1144.49L646.615 1145.83C644.466 1152.69 658.419 1177.92 658.508 1189.2C651.454 1176.22 644.514 1149.83 642.295 1135.06C641.385 1129.01 638.496 1124.59 638.315 1118C640.106 1119.94 645.522 1137 648.547 1142.73Z"/><path fill="#FCFCFC" fill-opacity="0.39607844" d="M1097.66 705.423C1117.41 706.576 1191.42 767.541 1209.52 782.191C1214.18 785.958 1225.45 799.849 1230.84 804.167C1233.23 810.783 1241.8 823.519 1248.14 827.097L1249.32 826.488C1248.56 821.636 1247.2 819.702 1244.45 815.498L1244.71 813.819C1252.33 820.584 1254.74 836.394 1262.1 843.658C1262.2 843.899 1262.3 844.139 1262.4 844.379L1259.76 844.903C1257.59 842.038 1254.39 834.246 1251.26 833.576L1252.22 838.869L1250.61 839.008C1241.06 827.564 1237.07 816.097 1223.79 800.958C1217.64 793.484 1186.41 760.365 1178.39 762.341L1175.94 760.668C1161.1 746.79 1139.21 731.056 1120.85 722.586L1121.1 722.124C1122.13 721.265 1121.54 721.859 1122.62 720.123C1119.39 715.066 1103.79 708.401 1097.66 705.423Z"/><path fill="#B6BDB9" fill-opacity="0.64313728" d="M1136.99 691.519C1154.78 696.397 1182.97 716.491 1198.18 727.173C1194.52 723.524 1189.85 719.336 1187.19 715.053C1193.59 718.751 1203.02 728.376 1208.59 733.821C1215.87 740.854 1221.35 744.893 1229.66 750.784C1235.29 755.839 1239.9 761.797 1244.7 767.643L1242.8 770.676C1239.1 765.525 1232.38 758.676 1227.45 754.618L1225.33 754.88L1225.86 753.503L1224.63 753.654L1225.36 755.001L1224.55 753.101C1225.89 757.409 1231.71 763.131 1234.99 766.767L1231.24 768.148C1224.39 761.226 1198.73 740.426 1197.55 735.953L1198.69 736.381C1205.21 739.82 1208.74 743.987 1216.18 746.501C1215.67 744.104 1205.31 736.227 1202.8 734.492C1189.34 721.582 1173.9 712.836 1157.88 703.376C1151.12 699.385 1143.4 695.961 1136.99 691.519Z"/><path fill="#ECE3D8" fill-opacity="0.24313726" d="M664.519 1234.67C667.967 1239.63 670.807 1244.17 673.973 1249.3C681.357 1252.17 683.49 1254.02 689.147 1259.61C692.934 1264.75 706.685 1281.15 708.837 1284.84C704.258 1281.48 701.453 1278.47 697.501 1274.48C700.069 1279.83 702.15 1283.51 705.412 1288.41C707.693 1291.83 719.109 1304.42 718.947 1307.01L718.513 1307.41C713.604 1303.74 702.949 1293.19 699.321 1288.44C689.168 1275.15 663.435 1252.38 664.519 1234.67Z"/><path fill="#B6BDB9" fill-opacity="0.49019608" d="M667.842 932.341C667.717 928.346 668.187 920.502 669.341 917.024C672.211 908.378 687.984 892.205 685.057 883.341C682.792 876.482 685.643 872.426 689.276 865.002C693.907 855.433 699.572 846.4 706.169 838.065C710.486 832.584 757.265 783.555 759.288 782.855L760.564 784.333L759.563 787.411L758.296 784.846C755.788 786.074 755.448 787.328 753.963 789.776L754.011 792.087C756.67 791.376 756.729 790.904 758.8 788.953C755.218 796.776 750.305 796.499 746.52 803.248L743.623 804.416C737.512 802.577 731.717 815.267 726.886 819.757C719.931 826.204 711.726 833.223 706.634 841.095C695.066 856.457 691.506 862.741 685.395 880.732C691.302 875.483 704.194 847.222 710.548 850.034C704.403 859.307 681.586 896.191 679.223 907.111C666.568 921.935 674.452 920.581 667.842 932.341Z"/><path fill="#FCFCFC" fill-opacity="0.054901961" d="M679.223 907.111C681.475 907.985 681.569 907.957 683.648 909.169C685.021 915.301 681.918 920.81 678.592 925.924C678.738 923.235 681.276 915.738 680.883 914.38L679.798 915.792L680.934 915.306C672.156 921.888 656.878 970.744 657.632 982.019C657.528 985.437 658.075 988.703 656.317 990.958L655.875 991.137C654.722 986.72 653.394 983.9 651.61 979.778C653.053 973.097 653.313 971.98 652.827 965.335C652.217 956.998 657.121 945.749 659.331 937.166C662.134 935.85 665.723 934.475 667.842 932.341C674.452 920.581 666.568 921.935 679.223 907.111Z"/><path fill="#828282" fill-opacity="0.039215688" d="M1051.64 649.469C1056.64 649.484 1062.31 649.895 1067.36 650.139C1088.2 655.338 1112.98 660.859 1134.25 664.362C1129.25 665.633 1129.51 664.708 1126.73 667.885C1126.09 670.874 1125.87 671.196 1126.06 674.19C1124.96 674.908 1124.45 675.385 1123.24 675.808C1097 664.977 1078.44 658.231 1051.64 649.469Z"/><path fill="#B6BDB9" fill-opacity="0.019607844" d="M735.575 1179.15C740.625 1178.01 745.554 1181.18 750.285 1177.67L750.827 1173.72L753.565 1171.75C755.281 1190.07 759.606 1205.68 772.827 1218.99L776.04 1205.95C776.23 1209.72 777.319 1221.44 776.116 1224.01C772.289 1226.34 769.423 1224.76 764.392 1223.54L762.978 1223.19C761.546 1219.23 760.206 1212.2 759.244 1207.88C752.362 1200.5 743.229 1190.95 737.357 1182.92L735.575 1179.15Z"/><path fill="#FCFCFC" fill-opacity="0.031372551" d="M969.547 647.895C992.42 649.493 1024.44 646.606 1044.37 655.199C1042.98 658.171 1043.55 658.615 1041.43 659.257C1037.64 660.405 1031.83 661.177 1027.96 661.238C1022.13 659.36 1012.01 655.947 1006.11 656.238C995.794 654.095 976.489 653.085 969.547 647.895Z"/><path fill="#E2C6B0" fill-opacity="0.75686276" d="M1188.99 608.334C1216.15 613.866 1265.75 649.735 1287.88 666.6L1287.33 668.693C1285.74 668.488 1284.16 668.291 1282.57 668.104C1281.13 666.348 1277.89 664.431 1275.87 663.043C1269.3 656.801 1254.44 647.649 1246.09 643.89C1250.6 649.464 1257.17 653.532 1260.07 657.494C1255.29 657.573 1240.74 643.998 1240.22 639.428L1242.45 637.635C1230.16 629.032 1216.38 621.907 1202.66 615.886C1198.92 614.243 1190.5 611.753 1188.99 608.334Z"/><path fill="#283027" fill-opacity="0.627451" d="M840.642 1420.46C842.735 1420.51 892.868 1448.82 901.544 1452.17C934.842 1465.04 978.907 1466.89 1014.34 1465.21L1014.74 1464.49C1012.57 1462.85 1012.41 1463.19 1011.17 1460.84L1016 1462.03C1019.46 1464.88 1032.27 1464.7 1036.95 1464.9C1017.14 1468.7 990.833 1464.73 971.96 1466.92C931.514 1464.79 905.231 1460.26 870.119 1438.52C862.067 1433.54 845.725 1429.23 840.642 1420.46Z"/><path fill="#51524B" fill-opacity="0.51764709" d="M1082.57 1453.34L1083.81 1451.53C1089.23 1463.04 1094.51 1455.58 1103.57 1456.13C1107.07 1458.47 1111.1 1457.84 1115.55 1457.85C1092.14 1464.92 1064.91 1466.09 1040.64 1466.47C1020.94 1466.78 991.256 1470.55 971.96 1466.92C990.833 1464.73 1017.14 1468.7 1036.95 1464.9C1032.27 1464.7 1019.46 1464.88 1016 1462.03C1018.56 1461.7 1016.3 1461.87 1018.61 1461.96C1033.97 1462.54 1055.64 1462.8 1070.25 1459.42C1068.03 1461.33 1068.52 1460.48 1067.3 1462.92C1072.49 1465.11 1082.33 1462.21 1087.95 1460.86C1087 1458.89 1084.51 1457.42 1082.57 1453.34Z"/><path fill="#A9C0AE" fill-opacity="0.72156864" d="M622.374 1172.26C624.629 1176.63 625.976 1182.98 628.631 1186.2L631.37 1184.52C636.474 1185.86 649.184 1206.93 650.174 1212.27C646.099 1207.87 636.417 1190.48 632.83 1188.9C635.207 1196.36 639.115 1205.12 642.444 1212.31C645.025 1218.64 647.545 1225.07 650.732 1231.13C653.502 1236.4 657.58 1240.5 659.58 1245.9C657.119 1245.73 656.364 1244.54 653.968 1242.84C647.2 1233.04 643.713 1226.46 638.154 1215.91C633.618 1207.31 631.362 1198.53 627.557 1190.81C627.355 1189.59 623.041 1179.22 622.294 1177.37L622.374 1172.26Z"/><path fill="#A9C0AE" fill-opacity="0.86666667" d="M1120.85 722.586C1139.21 731.056 1161.1 746.79 1175.94 760.668C1173.85 761.142 1172.92 761.507 1170.84 761.539C1168.38 759.398 1165.42 757.204 1162.82 755.177C1147.06 743.574 1137.51 737.957 1119.93 729.948L1119.37 728.584C1116.12 727.672 1116.12 728.649 1112.04 730.818C1107.88 730.165 1105.45 728.435 1101.79 726.397C1107.91 728.066 1113.99 731.016 1117.07 723.238L1120.85 722.586Z"/><path fill="#283027" fill-opacity="0.68235296" d="M1399.32 1248.11C1399.62 1241.16 1424.06 1202.35 1427.51 1192.53C1428.36 1190.13 1434.26 1178.56 1436.12 1176.5L1437.63 1176.54L1438.82 1180.08L1438.41 1180.8C1428.25 1199.1 1417.12 1228.25 1403.19 1246.29C1402.98 1246.57 1399.91 1247.89 1399.32 1248.11Z"/><path fill="#A9C0AE" fill-opacity="0.90588236" d="M908.507 713.926C911.649 713.83 915.136 713.208 917.543 714.829L917.758 715.916C903.657 720.033 874.807 723.892 863.724 728.286C856.694 727.466 841.548 740.018 837.86 736.661L839.765 734.108C854.579 722.488 890.313 716.782 908.507 713.926Z"/><path fill="#B6BDB9" fill-opacity="0.56470591" d="M1076 716.61C1081.78 718.612 1097.4 725.174 1101.79 726.397C1105.45 728.435 1107.88 730.165 1112.04 730.818C1116.12 728.649 1116.12 727.672 1119.37 728.584L1119.93 729.948L1116.84 730.736C1121.36 735.857 1149.84 748.532 1157.47 760.456L1157.03 761.531L1154.58 761.437C1131.54 742.404 1101.77 728.4 1073.89 718.276L1076 716.61Z"/><path fill="#B6BDB9" fill-opacity="0.48235294" d="M728.255 839.031C739.375 828.058 749.308 815.643 760.189 804.418C763.149 801.364 766.574 797.045 770.929 798.658L771.992 801.577C757.518 811.077 742.289 830.963 730.204 843.682C727.171 846.874 722.534 855.886 718.434 855.413C718.504 851.391 725.6 842.58 728.255 839.031Z"/><defs><linearGradient id="gradient_0" gradientUnits="userSpaceOnUse" x1="1247.0107" y1="812.57343" x2="1252.4181" y2="792.54236"><stop offset="0" stop-color="white" stop-opacity="0"/><stop offset="1" stop-color="white" stop-opacity="0.043137256"/></linearGradient></defs><path fill="url(#gradient_0)" d="M1243.38 777.141L1246.59 776.166C1248.12 778.358 1250.3 781 1251.07 783.381C1250.11 785.686 1249.43 787 1248.96 789.453L1246.87 789.79C1247.4 794.641 1260.58 811.872 1264.09 817.222L1262.19 819.592C1260.72 819.381 1258.2 818.931 1256.8 818.889L1256.16 818.73C1254.57 816.569 1250.66 814.901 1248.16 812.974C1244.16 803.687 1251.11 802.893 1241.46 793.916C1240.4 793.274 1240.28 792.398 1239.5 790.933C1243.22 789.097 1244.36 785.624 1243.84 781.84L1245.27 780.503L1243.38 777.141Z"/><path fill="#283027" fill-opacity="0.72549021" d="M1363.18 1297.78L1364.27 1298.44L1364.44 1300.86C1358.09 1314.61 1333.71 1336.99 1320.63 1346.01C1319.5 1344.81 1319.29 1344.35 1318.38 1342.97L1319.63 1340.75C1329.61 1335.93 1354.39 1307.45 1363.18 1297.78Z"/><path fill="#B6BDB9" fill-opacity="0.53725493" d="M705.989 1324.42C696.214 1316.12 680.422 1303.14 674.201 1292.53L675.264 1292.2C683.968 1297.22 726.714 1335.67 732.745 1344.34C730.381 1342.59 723.101 1336.98 720.927 1335.66C716.091 1331.69 711.046 1328.11 705.989 1324.42Z"/><path fill="#FCFCFC" fill-opacity="0.023529412" d="M1141.79 1440.6L1141.97 1442.07C1140.01 1443.49 1138.18 1444.86 1136.12 1446.14C1125.66 1450.82 1121.62 1451.92 1110.34 1454.07C1099.45 1454.01 1100.06 1455.88 1091.99 1448C1108.81 1447.68 1125.19 1443.67 1141.79 1440.6Z"/><path fill="#A9C0AE" fill-opacity="0.81568629" d="M692.188 1251.81C697.355 1259.99 729.31 1300.93 729.104 1306.06C729.096 1306.28 728.991 1306.48 728.934 1306.68C722.335 1300.46 715.051 1291.77 708.837 1284.84C706.685 1281.15 692.934 1264.75 689.147 1259.61C691.184 1260.92 691.339 1260.89 693.675 1261.64L694.327 1260.36C692.924 1256.81 692.516 1255.59 692.188 1251.81Z"/><path fill="#283027" fill-opacity="0.76078433" d="M1392.23 1237.66C1395.67 1239 1394.54 1237.85 1396.37 1240.48L1386.94 1254.2C1377.15 1265.97 1365.64 1279.52 1352.68 1287.78C1361.75 1275.32 1370.02 1263.42 1381.16 1252.7C1385.52 1248.52 1388.99 1242.79 1392.23 1237.66Z"/><path fill="#FCFCFC" fill-opacity="0.054901961" d="M1178.39 762.341C1186.41 760.365 1217.64 793.484 1223.79 800.958C1221.34 809.563 1226.38 807.024 1224.11 812.398L1221.91 812.756C1222.9 811.104 1222.48 811.919 1222.56 809.678C1217.43 800.492 1205.34 787.248 1197.1 780.614C1192.51 775.696 1183.64 766.045 1178.39 762.341Z"/><path fill="#B6BDB9" fill-opacity="0.050980393" d="M1011.17 1460.84C1017.11 1456.33 1064.89 1456.05 1075.21 1455.7C1072.85 1458.09 1073.05 1458.66 1070.25 1459.42C1055.64 1462.8 1033.97 1462.54 1018.61 1461.96C1016.3 1461.87 1018.56 1461.7 1016 1462.03L1011.17 1460.84Z"/><path fill="#FCFCFC" fill-opacity="0.047058824" d="M1235.67 746.072C1239.48 751.682 1250.08 769.517 1255.4 772.293C1258.6 776.513 1262.52 781.444 1265.45 785.743L1262.2 785.963L1256.6 785.603C1254.94 780.719 1247.99 771.942 1244.7 767.643C1239.9 761.797 1235.29 755.839 1229.66 750.784C1230.47 748.119 1229.9 748.98 1231.76 747.025L1234.35 747.237L1235.67 746.072Z"/><path fill="#FCFCFC" fill-opacity="0.031372551" d="M697.501 1274.48C701.453 1278.47 704.258 1281.48 708.837 1284.84C715.051 1291.77 722.335 1300.46 728.934 1306.68C729.73 1309.83 730.85 1312.27 730.236 1315.16C726.251 1316.36 718.508 1311.16 718.513 1307.41L718.947 1307.01C719.109 1304.42 707.693 1291.83 705.412 1288.41C702.15 1283.51 700.069 1279.83 697.501 1274.48Z"/><path fill="#FCFCFC" fill-opacity="0.050980393" d="M1226.21 713.684C1236.14 722.02 1239.92 729.88 1248.26 737.912L1245 741.302L1241.2 738.39C1239.66 734.877 1226.16 728.463 1223.16 724.32C1222.42 723.285 1221.82 723.707 1219.87 723.662L1218.55 724.099C1218.15 722.218 1218.3 722.723 1218.58 720.711C1221.68 716.364 1223.25 717.293 1226.21 713.684Z"/><path fill="#FCFCFC" fill-opacity="0.078431375" d="M1119.93 729.948C1137.51 737.957 1147.06 743.574 1162.82 755.177C1160.72 759.203 1161.76 760.518 1159.18 764.317L1157.77 764.686C1155.62 763.046 1155.55 763.531 1154.58 761.437L1157.03 761.531L1157.47 760.456C1149.84 748.532 1121.36 735.857 1116.84 730.736L1119.93 729.948Z"/><path fill="#283027" fill-opacity="0.55686277" d="M1251.71 1397.65C1258.08 1394.18 1260.03 1392.95 1266.89 1390.79L1268.24 1390.36C1268.51 1390.28 1268.78 1390.2 1269.05 1390.11C1253.54 1406.09 1231.15 1412.96 1212.87 1424.41L1214.59 1419.15C1216.6 1416.66 1246.43 1401.07 1251.71 1397.65Z"/><path fill="#FCFCFC" fill-opacity="0.011764706" d="M1218.55 724.099L1219.87 723.662C1222.58 734.103 1229.72 736.649 1235.67 746.072L1234.35 747.237L1231.76 747.025C1229.9 748.98 1230.47 748.119 1229.66 750.784C1221.35 744.893 1215.87 740.854 1208.59 733.821C1212.84 734.112 1212.62 734.046 1216.41 731.908C1219.19 727.897 1218.4 729.553 1218.55 724.099Z"/><path fill="#B6BDB9" fill-opacity="0.49019608" d="M657.632 982.019C656.878 970.744 672.156 921.888 680.934 915.306L679.798 915.792L680.883 914.38C681.276 915.738 678.738 923.235 678.592 925.924C673.608 937.44 669.855 948.363 665.775 960.149C663.977 965.346 660.171 977.71 657.632 982.019Z"/><path fill="#51524B" fill-opacity="0.50980395" d="M1421.69 1172.4L1423.22 1172.84C1421.14 1179.89 1418.51 1187.52 1418.71 1194.82L1419.51 1196.1L1422.59 1194.34C1417.89 1205.47 1409.45 1217.5 1402.68 1227.73C1396.45 1231.27 1397.06 1232.59 1392.58 1236.93C1396.12 1225.22 1412.17 1209.27 1415.63 1196.57C1417.9 1188.27 1417.5 1182.1 1421.12 1173.69L1421.69 1172.4Z"/><path fill="#ECE3D8" fill-opacity="0.51372552" d="M1259.76 844.903L1262.4 844.379C1268.72 852.505 1265.04 842.948 1272.45 851.944C1273.28 854.876 1273.98 856.214 1273.22 859.161C1270.8 859.569 1270.41 858.735 1267.67 857.369C1268.33 859.599 1268.6 860.799 1269.62 862.873C1272.29 872.448 1276.64 882.48 1275.39 892.044C1273.12 888.674 1274.15 887.437 1272.38 886.195C1271.7 882.622 1261.23 847.711 1259.76 844.903Z"/><path fill="#FCFCFC" fill-opacity="0.18039216" d="M627.557 1190.81C631.362 1198.53 633.618 1207.31 638.154 1215.91C643.713 1226.46 647.2 1233.04 653.968 1242.84C650.539 1240.85 650.493 1238.74 646.877 1238.25C646.468 1241.77 647.283 1240.48 645.212 1242.68C640.578 1241.15 634.754 1227.32 633.561 1222.68C638.938 1229.85 638.756 1235.22 647.193 1242.32C642.729 1234.53 631.556 1205.67 627.315 1202.44C627.08 1207.56 629.075 1211.16 630.758 1216.29C627.796 1212.61 624.991 1205.04 623.042 1200.46C623.428 1198.66 623.126 1199.67 624.123 1197.46C626.453 1198.31 625.594 1198.25 627.976 1198.22C628.623 1195.09 628.164 1193.91 627.557 1190.81Z"/><path fill="#FCFCFC" fill-opacity="0.44705883" d="M1236.08 651.208L1237.73 651.573C1239.85 652.052 1241.09 652.498 1243.16 653.258L1244.52 652.685C1247.61 653.83 1255.6 658.381 1258.1 660.391L1254.16 660.661C1254.62 664.138 1261.72 667.621 1264.88 669.555L1266.23 670.479C1277.69 679.802 1307.63 705.498 1313.86 716.914C1311.82 715.452 1309.59 713.373 1307.66 711.695C1286.49 689.985 1261.8 667.399 1236.08 651.208Z"/><path fill="#FCFCFC" fill-opacity="0.10980392" d="M1241.46 793.916C1251.11 802.893 1244.16 803.687 1248.16 812.974C1250.66 814.901 1254.57 816.569 1256.16 818.73L1254.31 820.584C1256.13 824.807 1264.59 843.467 1267.69 845.402C1268.1 844.669 1268.75 843.637 1268.97 842.894C1270.27 845.985 1271.56 848.693 1272.45 851.944C1265.04 842.948 1268.72 852.505 1262.4 844.379C1262.3 844.139 1262.2 843.899 1262.1 843.658C1254.74 836.394 1252.33 820.584 1244.71 813.819C1243.54 811.334 1243.85 812.311 1243.69 809.499C1247.3 804.815 1243.74 798.243 1241.46 793.916Z"/><path fill="#FCFCFC" fill-opacity="0.10980392" d="M780.978 1368.86C773.602 1364.49 767.016 1352.47 764.21 1344.57L763.735 1343.2C758.848 1340.69 750.951 1342.32 750.36 1334.42C754.443 1334.21 757.363 1339.07 761.27 1338.37C759.405 1325.73 752 1296 763.294 1285.78C754.611 1317.25 761.006 1342.84 780.978 1368.86Z"/><path fill="#ECE3D8" fill-opacity="0.39607844" d="M1341.65 728.89C1338.68 725.298 1319.06 706.126 1319.15 704.943C1331.12 709.079 1356.58 738.613 1365.91 749.495L1363.46 750.142C1359.93 747.992 1353.61 741.818 1350.2 738.654C1347.32 735.199 1344.71 732.186 1341.65 728.89Z"/><path fill="#FCFCFC" fill-opacity="0.043137256" d="M658.508 1189.2C658.419 1177.92 644.466 1152.69 646.615 1145.83L648.382 1144.49C648.931 1145.26 667.731 1202.98 668.591 1206.41L667.34 1209.05C663.976 1202.08 661.233 1196.42 658.508 1189.2Z"/><path fill="#ECE3D8" fill-opacity="0.21176471" d="M1350.2 738.654C1353.61 741.818 1359.93 747.992 1363.46 750.142L1365.91 749.495C1368.28 752.434 1369.25 753.672 1371.14 756.957C1379.19 770.95 1403.13 785.557 1406.48 801.281C1403.76 797.967 1401.72 793.924 1398.33 790.151C1384.57 774.842 1369.64 760.91 1354.7 746.836C1351.72 743.343 1351.01 742.963 1350.2 738.654Z"/><path fill="#FCFCFC" fill-opacity="0.16078432" d="M1436.47 1132.52C1438.57 1130.78 1439.08 1130.36 1440.36 1127.97C1440.5 1129.64 1440.46 1131.43 1441.06 1132.9C1436.78 1141.94 1428.66 1154.36 1431.78 1163.07C1432.05 1163.83 1432.34 1164.58 1432.63 1165.33C1431.51 1167.94 1430.3 1170.28 1429.67 1173.01L1427.77 1173.41L1426.48 1169.34C1424.32 1170.55 1424.5 1170.66 1423.22 1172.84L1421.69 1172.4C1423.25 1168.78 1425.87 1167.29 1427.44 1162.76C1426.97 1158.64 1427.1 1158.76 1425.2 1155.15C1428.8 1147.53 1432.56 1139.98 1436.47 1132.52Z"/><path fill="#A9C0AE" fill-opacity="0.61960787" d="M1175.94 760.668L1178.39 762.341C1183.64 766.045 1192.51 775.696 1197.1 780.614C1194.17 781.413 1193.44 781.339 1190.41 780.966C1190.82 783.543 1193.41 785.156 1193.88 789.824C1187.39 786.261 1182.36 782.15 1182.89 774.599C1181.8 772.303 1173.6 764.562 1170.84 761.539C1172.92 761.507 1173.85 761.142 1175.94 760.668Z"/><path fill="#E2C6B0" fill-opacity="0.73333335" d="M1219.87 723.662C1221.82 723.707 1222.42 723.285 1223.16 724.32C1226.16 728.463 1239.66 734.877 1241.2 738.39C1239.17 737.644 1237.32 736.693 1235.43 735.64L1234.51 736.324C1236.42 746.204 1255.46 769.371 1255.4 772.293C1250.08 769.517 1239.48 751.682 1235.67 746.072C1229.72 736.649 1222.58 734.103 1219.87 723.662Z"/><path fill="#FCFCFC" fill-opacity="0.054901961" d="M615.55 1179.86C616.651 1181.22 617.725 1182.45 618.878 1183.76C620.452 1180.04 612.558 1159.63 610.731 1152.85C615.16 1160 618.94 1169.55 622.294 1177.37C623.041 1179.22 627.355 1189.59 627.557 1190.81C628.164 1193.91 628.623 1195.09 627.976 1198.22C625.594 1198.25 626.453 1198.31 624.123 1197.46C623.126 1199.67 623.428 1198.66 623.042 1200.46L621.934 1199.78C621.18 1195.53 617.094 1185.31 615.55 1179.86Z"/><path fill="#A9C0AE" fill-opacity="0.65490198" d="M785.683 772.213L787.3 772.914C777.108 783.264 766.185 792.321 755.74 802.36C747.489 810.289 739.678 820.611 730.895 827.884C734.175 819.705 739.099 812.012 743.623 804.416L746.52 803.248L739.086 817.035C753.722 801.189 769.281 786.223 785.683 772.213Z"/><path fill="#FCFCFC" fill-opacity="0.031372551" d="M1290.85 707.38C1295.98 710.02 1300.68 713.446 1305.47 716.702C1310.61 721.491 1317.67 728.468 1323.25 732.293C1318.73 731.442 1317.17 731.175 1313.18 734C1304.78 726.414 1296.62 717.136 1290.85 707.38Z"/><path fill="#ECE3D8" fill-opacity="0.44705883" d="M1264.09 817.222C1260.58 811.872 1247.4 794.641 1246.87 789.79L1248.96 789.453C1250.48 791.685 1252.08 794.315 1253.97 796.192C1260.57 805.744 1276.41 824.095 1276.94 834.323C1273.94 833.144 1266.25 820.578 1264.09 817.222Z"/><path fill="#FCFCFC" fill-opacity="0.035294119" d="M706.634 841.095C708.962 848.547 707.219 843.171 712.338 848.596C711.242 850.046 711.913 849.678 710.548 850.034C704.194 847.222 691.302 875.483 685.395 880.732C691.506 862.741 695.066 856.457 706.634 841.095Z"/><path fill="#283027" fill-opacity="0.89411765" d="M1141.79 1440.6C1146.65 1437.65 1149.45 1437 1155.02 1437.3L1157.06 1441.9C1149.77 1447.79 1148.33 1449.01 1139.15 1452.05C1136.99 1451.84 1134.99 1451.58 1132.84 1451.28L1132.6 1450.11L1136.12 1446.14C1138.18 1444.86 1140.01 1443.49 1141.97 1442.07L1141.79 1440.6Z"/><path fill="#B6BDB9" fill-opacity="0.41176471" d="M1193.88 789.824C1193.41 785.156 1190.82 783.543 1190.41 780.966C1193.44 781.339 1194.17 781.413 1197.1 780.614C1205.34 787.248 1217.43 800.492 1222.56 809.678C1222.48 811.919 1222.9 811.104 1221.91 812.756C1219.1 808.645 1200.86 788.628 1196.74 786.839L1193.88 789.824Z"/><path fill="#FCFCFC" fill-opacity="0.019607844" d="M787.301 1170.77C791.449 1159.93 794.245 1151.87 797.067 1140.66C797.293 1144.43 797.013 1153.95 798.049 1156.42L800.448 1157.09C798.848 1160.29 796.076 1164.76 796.167 1168.11L796.239 1171.99C792.884 1174.89 790.767 1172.86 787.301 1170.77Z"/><path fill="#B6BDB9" fill-opacity="0.53333336" d="M839.765 734.108L837.86 736.661C841.548 740.018 856.694 727.466 863.724 728.286C856.522 733.473 822.944 749.136 812.735 753.836L817.622 747.88L817.163 746.173C825.914 743.127 831.613 738.995 839.149 733.791L839.765 734.108Z"/><path fill="#FCFCFC" fill-opacity="0.050980393" d="M726.846 1344.73C727.166 1344.79 762.599 1369.51 763.584 1371.22C754.526 1369.39 735.871 1358.3 728.653 1351.5C726.008 1349 726.632 1347.64 726.846 1344.73Z"/><path fill="#A9C0AE" fill-opacity="0.87450981" d="M803.766 753.369C809.221 750.097 811.365 748.261 817.622 747.88L812.735 753.836C803.866 759.626 800.266 761.936 792.684 769.341C790.132 770.703 789.425 770.905 787.3 772.914L785.683 772.213C786.396 770.73 790.364 766.986 790.475 765.858C790.767 762.895 790.652 763.788 792.315 761.193C797.932 758.652 799.309 757.618 803.766 753.369Z"/><path fill="#FCFCFC" fill-opacity="0.090196081" d="M1246.09 643.89C1254.44 647.649 1269.3 656.801 1275.87 663.043L1274.8 667.094C1272.36 668.152 1270.57 667.41 1267.9 666.856C1265.81 668.844 1266.33 667.663 1266.23 670.479L1264.88 669.555C1264.25 667.798 1264.18 667.538 1263.33 665.935L1267.46 665.887L1268.59 663.958L1267.78 662.187L1265.79 661.546L1260.07 657.494C1257.17 653.532 1250.6 649.464 1246.09 643.89Z"/><path fill="#FCFCFC" fill-opacity="0.019607844" d="M1231.22 769.034C1237.06 773.405 1239.02 777.034 1243.84 781.84C1244.36 785.624 1243.22 789.097 1239.5 790.933C1237.75 788.759 1235.05 786.137 1233.05 784.068C1233.02 782.621 1231.97 782.03 1230.93 780.975L1231.66 780.787C1226.04 771.14 1229.92 776.012 1231.22 769.034Z"/><path fill="#FCFCFC" fill-opacity="0.06666667" d="M1092 703.231C1093.3 703.696 1096.67 704.782 1097.66 705.423C1103.79 708.401 1119.39 715.066 1122.62 720.123C1121.54 721.859 1122.13 721.265 1121.1 722.124C1111.26 717.319 1101.34 712.68 1091.34 708.209C1091.11 705.568 1091.33 705.976 1092 703.231Z"/><path fill="#FCFCFC" fill-opacity="0.12941177" d="M1269.62 862.873L1270.36 864.071C1279.35 878.513 1283.01 870.449 1278.11 892.422C1277.47 895.3 1277.41 895.576 1275.83 898.422C1273.22 897.179 1271.7 888.855 1272.38 886.195C1274.15 887.437 1273.12 888.674 1275.39 892.044C1276.64 882.48 1272.29 872.448 1269.62 862.873Z"/><path fill="#A9C0AE" fill-opacity="0.88235295" d="M1237.33 802.329C1240.07 806.51 1242.42 813.539 1244.45 815.498C1247.2 819.702 1248.56 821.636 1249.32 826.488L1248.14 827.097C1241.8 823.519 1233.23 810.783 1230.84 804.167C1233.52 804.796 1233.07 804.847 1235.41 806.561L1236.14 807.102L1237.22 806.198L1237.33 802.329Z"/><path fill="#283027" fill-opacity="0.92941177" d="M1341.03 1299.71C1343.61 1299.78 1342.91 1299.75 1345.45 1300.52L1346.22 1302.39C1344.57 1306.58 1337.48 1313.24 1333.91 1317.1C1331.87 1318.33 1332.04 1318.31 1329.67 1318.13L1329.01 1316.28C1329.25 1310.61 1337.04 1303.77 1341.03 1299.71Z"/><path fill="#283027" fill-opacity="0.94117647" d="M1423.22 1172.84C1424.5 1170.66 1424.32 1170.55 1426.48 1169.34L1427.77 1173.41L1429.67 1173.01C1430.08 1176.85 1424.27 1188.03 1422.59 1194.34L1419.51 1196.1L1418.71 1194.82C1418.51 1187.52 1421.14 1179.89 1423.22 1172.84Z"/><path fill="#423A33" fill-opacity="0.66274512" d="M1110.34 1454.07C1121.62 1451.92 1125.66 1450.82 1136.12 1446.14L1132.6 1450.11L1132.84 1451.28C1134.99 1451.58 1136.99 1451.84 1139.15 1452.05C1136.29 1453.15 1118.22 1457.78 1115.55 1457.85C1111.1 1457.84 1107.07 1458.47 1103.57 1456.13L1110.34 1454.07Z"/><path fill="#FCFCFC" fill-opacity="0.16862746" d="M1287.88 666.6C1291.46 668.042 1307.75 684.257 1310.51 688.038L1310.45 688.016L1311.25 690.053C1308.89 689.368 1284.66 670.353 1282.57 668.104C1284.16 668.291 1285.74 668.488 1287.33 668.693L1287.88 666.6Z"/><path fill="#B6BDB9" fill-opacity="0.52156866" d="M630.758 1216.29C629.075 1211.16 627.08 1207.56 627.315 1202.44C631.556 1205.67 642.729 1234.53 647.193 1242.32C638.756 1235.22 638.938 1229.85 633.561 1222.68L630.758 1216.29Z"/><path fill="#FCFCFC" fill-opacity="0.3764706" d="M1198.41 1417.88C1208.36 1412.39 1220.7 1405.35 1231.09 1401.39C1226.37 1405.3 1202.5 1418.56 1196.7 1419.04C1194.36 1417.41 1194.13 1417.11 1191.28 1417.06C1194.99 1414.42 1202.75 1407.1 1206.39 1406.6L1204.68 1407.23C1205.02 1412.11 1202.45 1413.18 1198.41 1417.88Z"/><path fill="#423A33" fill-opacity="0.89411765" d="M1082.57 1453.34C1084.51 1457.42 1087 1458.89 1087.95 1460.86C1082.33 1462.21 1072.49 1465.11 1067.3 1462.92C1068.52 1460.48 1068.03 1461.33 1070.25 1459.42C1073.05 1458.66 1072.85 1458.09 1075.21 1455.7C1077.84 1453.78 1079.37 1453.84 1082.57 1453.34Z"/><path fill="#FCFCFC" fill-opacity="0.10196079" d="M886.804 715.221C897.742 710.653 912.975 709.351 925 707.676L921.06 709.599C920.897 712.295 920.924 712.911 921.205 715.602C918.876 716.456 920.028 716.396 917.758 715.916L917.543 714.829C915.136 713.208 911.649 713.83 908.507 713.926C900.923 713.134 894.314 714.259 886.804 715.221Z"/><path fill="#FCFCFC" fill-opacity="0.086274512" d="M642.444 1212.31C639.115 1205.12 635.207 1196.36 632.83 1188.9C636.417 1190.48 646.099 1207.87 650.174 1212.27L650.216 1213.19C647.204 1212.33 645.416 1211.44 642.444 1212.31Z"/><path fill="#E2C6B0" fill-opacity="0.81568629" d="M1307.66 711.695C1309.59 713.373 1311.82 715.452 1313.86 716.914C1316.96 720.449 1324.03 727.638 1325.23 731.362L1323.25 732.293C1317.67 728.468 1310.61 721.491 1305.47 716.702C1307.28 714.414 1307.16 714.587 1307.66 711.695Z"/><path fill="#ECE3D8" fill-opacity="0.082352944" d="M1303.91 1323.31C1304.49 1327.58 1303.07 1326.95 1301.23 1331.88C1294.73 1338.24 1290.35 1340.46 1282.27 1343.87C1289.87 1334.12 1293.58 1329.91 1303.91 1323.31Z"/><path fill="#ECE3D8" fill-opacity="0.58431375" d="M972.447 1222.2C976.711 1217.34 987.079 1203.08 991.852 1201.82C990.626 1207.83 980.881 1218.67 976.614 1223.83C975.274 1222.34 975.16 1222.86 972.447 1222.2Z"/><path fill="#FCFCFC" fill-opacity="0.050980393" d="M817.163 746.173L815.899 744.791C819.088 740.477 835.224 729.66 840.42 731.187L839.149 733.791C831.613 738.995 825.914 743.127 817.163 746.173Z"/><path fill="#FCFCFC" fill-opacity="0.011764706" d="M1083.81 1451.53C1086.54 1449.85 1088.98 1449.14 1091.99 1448C1100.06 1455.88 1099.45 1454.01 1110.34 1454.07L1103.57 1456.13C1094.51 1455.58 1089.23 1463.04 1083.81 1451.53Z"/><path fill="#FCFCFC" fill-opacity="0.22352941" d="M1234.99 766.767C1231.71 763.131 1225.89 757.409 1224.55 753.101L1225.36 755.001L1224.63 753.654L1225.86 753.503L1225.33 754.88L1227.45 754.618C1232.38 758.676 1239.1 765.525 1242.8 770.676C1244.06 772.55 1245.27 774.326 1246.59 776.166L1243.38 777.141C1241.83 776.456 1236.48 768.777 1234.99 766.767Z"/><path fill="#FCFCFC" fill-opacity="0.019607844" d="M705.989 1324.42C711.046 1328.11 716.091 1331.69 720.927 1335.66C714.594 1334.3 707.25 1338.36 703.341 1331.91C703.377 1328.11 704.001 1327.59 705.989 1324.42Z"/><path fill="#ECE3D8" fill-opacity="0.40000001" d="M1268.97 842.894C1268.75 843.637 1268.1 844.669 1267.69 845.402C1264.59 843.467 1256.13 824.807 1254.31 820.584L1256.16 818.73L1256.8 818.889C1262.74 828.758 1264.75 832.179 1268.97 842.894Z"/><path fill="#ECE3D8" fill-opacity="0.35294119" d="M1306.13 915.527C1312.97 919.604 1312.33 939.072 1311.73 946.33C1307.52 941.911 1306.37 922.15 1306.13 915.527Z"/><path fill="#283027" fill-opacity="0.65490198" d="M1194.76 1435.44C1194.53 1427.24 1207.96 1422.44 1214.59 1419.15L1212.87 1424.41C1206.94 1428.78 1201.7 1432.71 1194.76 1435.44Z"/><path fill="#FCFCFC" fill-opacity="0.24705882" d="M1218.24 638.319C1231.65 641.297 1234.18 643.308 1244.52 652.685L1243.16 653.258C1241.09 652.498 1239.85 652.052 1237.73 651.573L1236.08 651.208C1229.27 646.909 1224.44 643.564 1218.24 638.319Z"/><path fill="#ECE3D8" fill-opacity="0.26666668" d="M1303.91 1323.31C1307.44 1319.35 1313.64 1313.76 1317.68 1309.93C1316.55 1312.51 1315.52 1314.77 1314.28 1317.3C1316.73 1320.61 1318.92 1320.38 1322.14 1324.93C1318.38 1322.67 1317.05 1321.25 1312.98 1321.73C1307.76 1323.8 1305.74 1328.18 1301.23 1331.88C1303.07 1326.95 1304.49 1327.58 1303.91 1323.31Z"/><path fill="#FCFCFC" fill-opacity="0.011764706" d="M1251.07 783.381C1254.39 785.713 1253.52 785.916 1256.6 785.603L1262.2 785.963C1259.72 796.088 1256.62 791.438 1253.97 796.192C1252.08 794.315 1250.48 791.685 1248.96 789.453C1249.43 787 1250.11 785.686 1251.07 783.381Z"/><path fill="#FCFCFC" fill-opacity="0.05882353" d="M1341.65 728.89C1344.71 732.186 1347.32 735.199 1350.2 738.654C1351.01 742.963 1351.72 743.343 1354.7 746.836C1347.18 741.927 1340.37 732.014 1332.41 732.241C1331.93 731.337 1332.14 731.929 1332.16 730.37C1334.74 730.52 1337.31 730.647 1339.89 730.751L1341.65 728.89Z"/><path fill="#283027" fill-opacity="0.63137257" d="M1445.31 1162C1441.25 1157.26 1445.12 1145 1451.3 1144.15L1452.45 1145.93C1450.78 1149.95 1447.37 1158.74 1445.31 1162Z"/><path fill="#FCFCFC" fill-opacity="0.31764707" d="M1436.47 1132.52C1438.37 1126.81 1440.24 1120.06 1443.48 1115.1L1444.56 1114.98C1444.96 1120.72 1444.17 1128.02 1441.06 1132.9C1440.46 1131.43 1440.5 1129.64 1440.36 1127.97C1439.08 1130.36 1438.57 1130.78 1436.47 1132.52Z"/><path fill="#B6BDB9" fill-opacity="0.48235294" d="M1244.7 767.643C1247.99 771.942 1254.94 780.719 1256.6 785.603C1253.52 785.916 1254.39 785.713 1251.07 783.381C1250.3 781 1248.12 778.358 1246.59 776.166C1245.27 774.326 1244.06 772.55 1242.8 770.676L1244.7 767.643Z"/><path fill="#FCFCFC" fill-opacity="0.32156864" d="M972.447 1222.2C975.16 1222.86 975.274 1222.34 976.614 1223.83C973.475 1227.48 966.132 1236.69 962.494 1238.47C962.667 1235.82 963.155 1236.12 965.195 1233.59L964.685 1231.14C965.393 1229.26 970.897 1223.81 972.447 1222.2Z"/><path fill="#ECE3D8" fill-opacity="0.23921569" d="M1248.26 737.912C1252.51 741.706 1257.46 745.63 1260.64 750.24L1260.52 751.389C1255.58 750.016 1248.99 744.605 1245 741.302L1248.26 737.912Z"/><path fill="#FCFCFC" fill-opacity="0.34509805" d="M1202.8 734.492C1205.31 736.227 1215.67 744.104 1216.18 746.501C1208.74 743.987 1205.21 739.82 1198.69 736.381L1202.8 734.492Z"/><path fill="#FCFCFC" fill-opacity="0.21960784" d="M1264.88 669.555C1261.72 667.621 1254.62 664.138 1254.16 660.661L1258.1 660.391C1260.9 662.035 1262.11 663.178 1265.3 662.89L1265.79 661.546L1267.78 662.187L1268.59 663.958L1267.46 665.887L1263.33 665.935C1264.18 667.538 1264.25 667.798 1264.88 669.555Z"/><path fill="#FCFCFC" fill-opacity="0.2" d="M1091.34 708.209C1085.74 705.284 1082.57 704.722 1078.42 700.197L1079.27 699.15L1078.37 699.383L1080.52 702.094L1079.1 700.792L1080.54 699.267L1079.5 701.139L1081.39 699.432C1084.25 699.994 1089.13 702.104 1092 703.231C1091.33 705.976 1091.11 705.568 1091.34 708.209Z"/><path fill="#A9C0AE" fill-opacity="0.57254905" d="M1234.99 766.767C1236.48 768.777 1241.83 776.456 1243.38 777.141L1245.27 780.503L1243.84 781.84C1239.02 777.034 1237.06 773.405 1231.22 769.034L1231.24 768.148L1234.99 766.767Z"/><path fill="#283027" fill-opacity="0.63921571" d="M1392.58 1236.93C1397.06 1232.59 1396.45 1231.27 1402.68 1227.73C1400.78 1231.63 1398.46 1236.82 1396.37 1240.48C1394.54 1237.85 1395.67 1239 1392.23 1237.66L1392.58 1236.93Z"/><path fill="#FCFCFC" fill-opacity="0.32549021" d="M793.259 756.908C796.854 754.901 798.206 752.662 802.321 751.7L803.766 753.369C799.309 757.618 797.932 758.652 792.315 761.193C792.071 760.631 791.827 760.07 791.583 759.508L793.259 756.908Z"/><path fill="#ECE3D8" fill-opacity="0.31764707" d="M758.8 788.953C756.729 790.904 756.67 791.376 754.011 792.087L753.963 789.776C755.448 787.328 755.788 786.074 758.296 784.846L759.563 787.411L758.8 788.953Z"/></svg>